<svg width="8" height="8" viewBox="0 0 8 8" fill="none" xmlns="http://www.w3.org/2000/svg">
<g id="Icon">
<g id="icon-logo">
<path d="M4.41309 0.800995C4.41939 0.800353 4.42571 0.800038 4.43205 0.800049C4.50415 0.800049 4.55315 0.840589 4.59842 0.887075C4.69399 0.98402 4.78881 1.08163 4.88367 1.17927C4.95486 1.25255 5.02612 1.3259 5.09768 1.39896C5.17979 1.48274 5.1858 1.6049 5.10208 1.69625C5.00875 1.79827 4.91047 1.8957 4.8122 1.99273C4.69554 2.10787 4.57849 2.22258 4.46146 2.33726C4.34476 2.45162 4.22806 2.56598 4.11185 2.68068C3.96229 2.82844 3.81394 2.97731 3.66556 3.12622L3.57654 3.21554L3.56451 3.22757C3.496 3.29613 3.42737 3.3648 3.3609 3.4354C3.30882 3.49067 3.24686 3.51891 3.18491 3.51891C3.15394 3.51824 3.12341 3.51132 3.09512 3.49856C3.06682 3.4858 3.04133 3.46745 3.02014 3.44459C2.84255 3.26504 2.66576 3.08487 2.48977 2.90406C2.41392 2.82622 2.40471 2.72555 2.47642 2.64447C2.55254 2.55852 2.63427 2.47764 2.71592 2.39684C2.73582 2.37716 2.75571 2.35747 2.77551 2.33772C2.88347 2.2304 2.99176 2.12308 3.10005 2.01576C3.19629 1.92038 3.29253 1.825 3.38854 1.72962C3.48703 1.63167 3.58532 1.53354 3.6836 1.4354C3.8081 1.31111 3.9326 1.1868 4.0575 1.06288C4.09207 1.02849 4.12756 0.995033 4.16304 0.961583C4.20033 0.926423 4.23762 0.891264 4.27382 0.855048C4.28994 0.838042 4.30928 0.824493 4.33068 0.815207C4.35208 0.805921 4.37511 0.801088 4.3984 0.800995H4.41309Z" fill="#282D30"/>
<path d="M4.20492 3.05027V3.04932C4.26087 3.04932 4.31695 3.0754 4.36889 3.12824C4.92481 3.69318 5.48059 4.25867 6.03624 4.82469C6.31611 5.10982 6.59585 5.39499 6.87546 5.68021L6.89846 5.70367C6.97506 5.78179 7.05166 5.8599 7.12715 5.93913C7.22783 6.04494 7.22343 6.15128 7.11888 6.25547C7.03763 6.33628 6.95704 6.4176 6.87646 6.49892C6.80347 6.57259 6.73034 6.64639 6.65687 6.71965C6.60333 6.77303 6.54818 6.82573 6.44537 6.82573H6.44136C6.39623 6.82573 6.35016 6.7883 6.30783 6.74587C6.11208 6.54992 5.91705 6.35376 5.72272 6.15737C5.4813 5.91224 5.24042 5.66684 5.00007 5.42116C4.92163 5.34121 4.84343 5.26096 4.76521 5.18069C4.59896 5.01007 4.43237 4.83911 4.26354 4.67118C4.23611 4.64387 4.20858 4.61661 4.18103 4.58935C4.09111 4.50035 4.00111 4.41128 3.91464 4.31984C3.86555 4.26789 3.81503 4.21737 3.76451 4.16685C3.68284 4.08519 3.60115 4.0035 3.52567 3.91593C3.45557 3.83471 3.45143 3.74539 3.52394 3.66026C3.57987 3.5946 3.64076 3.53329 3.70165 3.47197C3.72259 3.45087 3.74354 3.42978 3.76429 3.40851C3.79855 3.37346 3.83324 3.33884 3.86792 3.30422C3.92324 3.249 3.97855 3.19379 4.03214 3.13689C4.08635 3.07946 4.14564 3.05027 4.20492 3.05027Z" fill="#282D30"/>
<path d="M3.03763 4.13809C3.07562 4.10144 3.12589 4.08068 3.17837 4.07998C3.22742 4.08002 3.27446 4.09902 3.30923 4.13403C3.49688 4.31871 3.68123 4.50673 3.86229 4.69808C3.94628 4.78686 3.93707 4.8978 3.84827 4.98658C3.60134 5.23207 3.35436 5.47752 3.10734 5.72292C3.03933 5.79046 2.97149 5.8582 2.90364 5.92594C2.74861 6.08072 2.59356 6.23553 2.4365 6.38818C2.19116 6.62862 1.94721 6.87114 1.70464 7.11573C1.64869 7.17221 1.59635 7.20005 1.54027 7.20005C1.48419 7.20005 1.42784 7.17018 1.36909 7.111C1.20974 6.95136 1.05156 6.79046 0.894532 6.6283L0.892017 6.62572C0.844844 6.57721 0.796067 6.52704 0.800396 6.44844C0.796524 6.38344 0.825366 6.33318 0.870498 6.28885C1.05085 6.11255 1.23049 5.93548 1.40941 5.75765C1.49085 5.67665 1.57173 5.59506 1.65263 5.51346C1.72571 5.43973 1.79884 5.36596 1.87235 5.29266C1.93747 5.22772 2.00315 5.16335 2.06882 5.099C2.12273 5.04617 2.17663 4.99335 2.2302 4.94023C2.43111 4.74051 2.63198 4.54069 2.8328 4.34079C2.85431 4.31945 2.87569 4.29792 2.89707 4.27638C2.9434 4.22972 2.98977 4.18302 3.03763 4.13809Z" fill="#282D30"/>
<path d="M1.66191 2.60974V2.58974L1.66204 2.5888C1.71839 2.5888 1.77461 2.61609 1.82655 2.6692C2.14879 2.99757 2.47153 3.3254 2.79475 3.65269C2.84082 3.69918 2.8738 3.74958 2.86926 3.81918C2.8738 3.87377 2.8531 3.91809 2.81424 3.95688C2.74746 4.02379 2.68104 4.09103 2.61461 4.15828C2.51939 4.25467 2.42416 4.35108 2.32781 4.44659C2.26438 4.50997 2.21004 4.54119 2.15262 4.54119C2.0952 4.54119 2.03819 4.50808 1.97356 4.44227C1.6555 4.11885 1.33833 3.79499 1.02205 3.47067C0.912292 3.3581 0.914161 3.26176 1.02459 3.14946C1.1842 2.98721 1.34443 2.82532 1.50528 2.66379C1.55496 2.6138 1.6085 2.58974 1.66191 2.58974V2.60974C1.66195 2.60974 1.66187 2.60974 1.66191 2.60974Z" fill="#282D30"/>
</g>
</g>
</svg>
