<svg width="24" height="24" viewBox="0 0 24 24" fill="none" xmlns="http://www.w3.org/2000/svg">
<g id="gridicons:quote">
<path id="Vector" d="M11.192 15.757C11.192 14.877 10.962 14.138 10.502 13.54C10.176 13.128 9.73371 12.8573 9.17504 12.728C8.62504 12.6 8.10504 12.591 7.63504 12.7C7.47504 11.75 7.73504 10.744 8.39504 9.678C9.05637 8.61267 9.90904 7.81167 10.953 7.275L9.37204 5C8.57204 5.396 7.81204 5.898 7.11204 6.505C6.40204 7.112 5.77204 7.81 5.21204 8.599C4.65204 9.388 4.23204 10.279 3.96204 11.289C3.69204 12.299 3.61704 13.329 3.74604 14.389C3.91404 15.789 4.36604 16.909 5.10204 17.739C5.83737 18.5797 6.75337 19 7.85004 19C8.81504 19 9.61604 18.71 10.25 18.122C10.8774 17.546 11.1907 16.7567 11.19 15.754L11.192 15.757ZM20.316 15.757C20.316 14.877 20.086 14.138 19.626 13.54C19.2994 13.12 18.857 12.8477 18.299 12.723C17.739 12.5997 17.2257 12.5923 16.759 12.701C16.599 11.761 16.849 10.751 17.511 9.681C18.171 8.621 19.023 7.821 20.067 7.281L18.49 5C17.6894 5.396 16.936 5.89767 16.23 6.505C15.5136 7.12107 14.8773 7.82456 14.336 8.599C13.78 9.389 13.366 10.279 13.096 11.289C12.8218 12.2982 12.748 13.3514 12.879 14.389C13.045 15.789 13.495 16.909 14.229 17.739C14.9624 18.5737 15.8767 18.991 16.972 18.991C17.9387 18.9923 18.7394 18.7 19.374 18.114C20.0014 17.538 20.3154 16.7487 20.316 15.746V15.757Z" fill="#7CBD40"/>
</g>
</svg>
