<svg width="56" height="56" viewBox="0 0 56 56" fill="none" xmlns="http://www.w3.org/2000/svg">
<g clip-path="url(#clip0_2230_1803)">
<path d="M50.75 0H5.25C2.35051 0 0 2.35051 0 5.25V50.75C0 53.6495 2.35051 56 5.25 56H50.75C53.6495 56 56 53.6495 56 50.75V5.25C56 2.35051 53.6495 0 50.75 0Z" fill="white"/>
<path d="M50.75 0.875C51.3245 0.875 51.8934 0.988163 52.4242 1.20803C52.955 1.42789 53.4373 1.75015 53.8436 2.15641C54.2498 2.56266 54.5721 3.04496 54.792 3.57576C55.0118 4.10656 55.125 4.67547 55.125 5.25V50.75C55.125 51.9103 54.6641 53.0231 53.8436 53.8436C53.0231 54.6641 51.9103 55.125 50.75 55.125H5.25C4.67547 55.125 4.10656 55.0118 3.57576 54.792C3.04496 54.5721 2.56266 54.2498 2.15641 53.8436C1.33594 53.0231 0.875 51.9103 0.875 50.75V5.25C0.875 4.08968 1.33594 2.97688 2.15641 2.15641C2.97688 1.33594 4.08968 0.875 5.25 0.875H50.75ZM50.75 0H5.25C3.85761 0 2.52226 0.553123 1.53769 1.53769C0.553123 2.52226 0 3.85761 0 5.25L0 50.75C0 52.1424 0.553123 53.4777 1.53769 54.4623C2.52226 55.4469 3.85761 56 5.25 56H50.75C52.1424 56 53.4777 55.4469 54.4623 54.4623C55.4469 53.4777 56 52.1424 56 50.75V5.25C56 3.85761 55.4469 2.52226 54.4623 1.53769C53.4777 0.553123 52.1424 0 50.75 0Z" fill="url(#paint0_linear_2230_1803)"/>
<path d="M43.2031 45.2224C42.9624 45.2224 42.6781 44.9687 42.4856 44.7849C41.3918 43.7065 40.1099 42.4312 38.8434 41.1624C37.5768 39.8937 36.3781 38.684 35.1465 37.4437L34.3437 36.6256L32.9393 35.2037C31.9002 34.1515 30.8284 33.0621 29.7565 32.0099L29.2599 31.5243C28.7043 30.9796 28.1312 30.4174 27.5887 29.8509C27.2802 29.5315 26.9609 29.2143 26.6524 28.9081C26.1537 28.4159 25.6374 27.9062 25.1693 27.3768C24.7756 26.9262 24.7734 26.469 25.1693 26.0206C25.5171 25.6159 25.9065 25.2309 26.2806 24.8568C26.4074 24.7321 26.5343 24.6053 26.659 24.4784L27.3152 23.8221C27.6521 23.4896 27.9999 23.1462 28.3346 22.7962C28.4529 22.6552 28.5987 22.5399 28.763 22.4571C28.9274 22.3744 29.1069 22.326 29.2906 22.3149C29.4632 22.323 29.6324 22.366 29.7881 22.4412C29.9437 22.5163 30.0825 22.6222 30.1962 22.7524L32.2612 24.8284C35.032 27.6123 37.8028 30.3985 40.5737 33.1868C42.1881 34.807 43.7995 36.4294 45.4081 38.054L46.0227 38.6731C46.4602 39.1281 46.9218 39.5809 47.3659 40.0403C47.9281 40.6265 47.9127 41.1712 47.3177 41.7574C46.8212 42.2453 46.3312 42.7353 45.839 43.2253C45.3468 43.7153 44.9093 44.1528 44.4412 44.6143C44.1393 44.9118 43.8265 45.2203 43.2381 45.2203L43.2031 45.2224Z" fill="#FF9D3B"/>
<path d="M29.2753 22.4812C29.4262 22.4901 29.5739 22.5291 29.7095 22.596C29.8451 22.6629 29.966 22.7562 30.065 22.8705L32.3028 25.1193L40.4468 33.3027C42.0335 34.8981 43.6173 36.4935 45.1981 38.089L45.6728 38.568L45.8915 38.7868C46.329 39.2243 46.795 39.6968 47.239 40.1562C47.7378 40.6746 47.7247 41.1187 47.1931 41.6415C46.6987 42.1293 46.2065 42.6215 45.7143 43.1115C45.2222 43.6015 44.7847 44.039 44.3165 44.4983C43.9753 44.8352 43.715 45.0583 43.2228 45.0583H43.2075C43.074 45.0583 42.8706 44.9249 42.6059 44.6624C41.5122 43.5861 40.2368 42.3152 38.9637 41.0399C37.7387 39.8127 36.4984 38.5636 35.2997 37.354L34.464 36.5096C33.9937 36.0371 33.5256 35.5602 33.0553 35.0855C32.0184 34.0333 30.9465 32.9461 29.8747 31.8918L29.3781 31.4062C28.8225 30.8637 28.2494 30.3124 27.709 29.7371C27.4006 29.4155 27.079 29.0983 26.7684 28.7921C26.2719 28.3021 25.76 27.7946 25.2962 27.2608C24.955 26.8693 24.9528 26.5062 25.2962 26.119C25.6397 25.7318 26.0269 25.3358 26.39 24.964C26.5169 24.8393 26.6437 24.7124 26.7684 24.5855C26.9828 24.3682 27.2015 24.1539 27.4247 23.9424C27.7615 23.6077 28.1115 23.2621 28.4484 22.9099C28.5511 22.784 28.6784 22.6803 28.8224 22.6051C28.9664 22.5299 29.1242 22.4847 29.2862 22.4724M29.2862 22.1443C29.0798 22.1547 28.8778 22.2075 28.6926 22.2993C28.5075 22.3911 28.3432 22.52 28.21 22.678C27.6675 23.2468 27.0965 23.7893 26.5431 24.3493C26.0378 24.859 25.5128 25.3555 25.0447 25.898C24.5765 26.4405 24.6072 26.9699 25.0447 27.4708C25.8059 28.3458 26.6678 29.1202 27.4662 29.9558C28.1706 30.6908 28.9122 31.4018 29.6406 32.1171C31.185 33.6374 32.7031 35.1927 34.2344 36.7327C35.7656 38.2727 37.2312 39.7558 38.734 41.263C39.9459 42.4749 41.1607 43.6824 42.3784 44.8855C42.6431 45.1458 42.9297 45.3777 43.2118 45.3777H43.2359C43.8768 45.3777 44.2203 45.0518 44.5484 44.7215C45.5087 43.7721 46.4603 42.814 47.4228 41.8646C48.079 41.2236 48.1031 40.5696 47.4753 39.9177C46.959 39.3818 46.4319 38.8546 45.9068 38.3252C44.1685 36.5752 42.4273 34.8208 40.6831 33.0621C37.2225 29.5825 33.7611 26.1044 30.299 22.6277C30.1701 22.4824 30.0131 22.3645 29.8376 22.281C29.6621 22.1976 29.4716 22.1504 29.2775 22.1421L29.2862 22.1443Z" fill="#FF5C24"/>
<path d="M12.6875 47.5235C12.3856 47.5235 12.075 47.3594 11.7359 47.0225C10.7953 46.0841 9.78467 45.0756 8.78279 44.0541L8.76529 44.0366C8.48529 43.7522 8.2206 43.4831 8.24248 43.0719C8.23534 42.9061 8.26656 42.7409 8.33372 42.5891C8.40087 42.4373 8.50215 42.3031 8.62967 42.1969L9.11092 41.7288C10.072 40.7969 11.0308 39.8628 11.9875 38.9266C12.4964 38.4249 13.0032 37.9218 13.5078 37.4172C13.9606 36.9666 14.4134 36.5138 14.8706 36.0653C15.2731 35.6672 15.68 35.2735 16.0869 34.8797C16.4266 34.553 16.7635 34.2256 17.0975 33.8975C17.9375 33.075 18.776 32.2511 19.6131 31.4256L20.8512 30.2094L21.2187 29.8485C21.514 29.5553 21.8159 29.2535 22.1244 28.9735C22.3312 28.7766 22.6045 28.6649 22.89 28.6606C23.0201 28.6606 23.1489 28.6863 23.269 28.7362C23.3892 28.7861 23.4982 28.8593 23.59 28.9516C24.8478 30.1788 25.9744 31.3141 27.0309 32.4166C27.4684 32.8891 27.4487 33.4666 26.9456 33.9631C25.8402 35.0525 24.7333 36.1397 23.625 37.2247L22.3322 38.4935L21.0612 39.7447C20.1119 40.681 19.1319 41.6478 18.1562 42.5885C16.8219 43.8725 15.4153 45.2528 13.5975 47.0641C13.2715 47.3703 12.9762 47.5235 12.6875 47.5235Z" fill="#7CBD40"/>
<path d="M22.8834 28.8184C23.1032 28.8188 23.3139 28.9061 23.4697 29.0612C24.7253 30.2884 25.8497 31.4215 26.904 32.524C27.2912 32.9287 27.2606 33.399 26.8231 33.8365C25.7294 34.9171 24.6115 36.013 23.5309 37.074L22.2184 38.3668L20.9387 39.6268C19.9937 40.5587 19.0159 41.5234 18.0425 42.4574C16.7081 43.7415 15.3015 45.1218 13.4815 46.9352C13.2836 47.1763 12.998 47.329 12.6875 47.3596C12.4315 47.3596 12.1581 47.2109 11.8519 46.9068C10.9112 45.9684 9.90061 44.9599 8.89873 43.9405L8.88342 43.923C8.61655 43.6518 8.38905 43.4199 8.40655 43.0809V43.0437C8.4039 42.9043 8.43352 42.7663 8.4931 42.6403C8.55268 42.5143 8.6406 42.4038 8.74998 42.3174L9.21373 41.8646C10.1631 40.9437 11.1453 39.9899 12.1056 39.0471C12.6175 38.544 13.1315 38.0321 13.6369 37.5334C14.0897 37.0827 14.5403 36.6321 14.9953 36.1837C15.3978 35.7877 15.8112 35.3874 16.2115 35.0002C16.5513 34.6736 16.8889 34.3454 17.2244 34.0159C18.0644 33.1934 18.9036 32.3687 19.7422 31.5418L20.9759 30.3277C21.1006 30.2074 21.2231 30.0849 21.3456 29.9624C21.6387 29.6715 21.9406 29.3718 22.2447 29.0874C22.4218 28.9184 22.6561 28.8223 22.9009 28.8184M22.9009 28.4902C22.5744 28.4948 22.2617 28.623 22.0259 28.849C21.5884 29.2515 21.175 29.678 20.7506 30.0937C19.4862 31.323 18.2292 32.5524 16.9794 33.7818C16.2378 34.508 15.4897 35.2234 14.7503 35.9518C13.7856 36.9012 12.834 37.8637 11.8672 38.813C10.753 39.9068 9.63446 40.9962 8.51155 42.0812C8.36947 42.2015 8.25636 42.3522 8.18061 42.5223C8.10487 42.6923 8.06844 42.8773 8.07405 43.0634C8.0478 43.5555 8.3628 43.8662 8.6603 44.1702C9.6403 45.1663 10.6254 46.1565 11.6156 47.1409C11.9831 47.504 12.3331 47.6877 12.6831 47.6877C13.0331 47.6877 13.3569 47.5149 13.7069 47.1693C15.2148 45.6672 16.7336 44.1768 18.2634 42.698C19.67 41.3462 21.0503 39.968 22.4415 38.603C23.9801 37.0937 25.5179 35.5836 27.055 34.0727C27.6062 33.5259 27.6653 32.8434 27.1425 32.2987C26.0167 31.1189 24.8682 29.9617 23.6972 28.8271C23.5903 28.7203 23.4634 28.6355 23.3238 28.5777C23.1842 28.5199 23.0345 28.4902 22.8834 28.4902H22.9009Z" fill="#7BA262"/>
<path d="M22.9228 24.8741C22.7515 24.8702 22.5827 24.832 22.4264 24.7617C22.27 24.6915 22.1294 24.5906 22.0128 24.465C20.9606 23.4172 19.88 22.33 18.7118 21.1444C18.2897 20.7069 18.259 20.1885 18.6353 19.7707C19.1056 19.2457 19.6218 18.7425 20.1206 18.2547L20.4903 17.8916C21.1976 17.1931 21.9063 16.4974 22.6165 15.8047L24.3075 14.1488L26.1318 12.3485C26.9106 11.5799 27.6908 10.8121 28.4725 10.045C28.6912 9.82629 28.91 9.6316 29.1287 9.42816C29.3475 9.22473 29.5968 8.99066 29.8243 8.77191C29.9091 8.68275 30.0108 8.61145 30.1235 8.56224C30.2362 8.51302 30.3576 8.48688 30.4806 8.48535H30.5878H30.6906C31.0537 8.48535 31.3118 8.67129 31.6093 8.97316C32.13 9.49816 32.6499 10.0239 33.169 10.5504C33.6853 11.0732 34.1993 11.5982 34.7178 12.1188C34.8269 12.2212 34.9142 12.3445 34.9747 12.4813C35.0351 12.6182 35.0674 12.7658 35.0697 12.9154C35.0719 13.065 35.0441 13.2135 34.9877 13.3521C34.9314 13.4907 34.8478 13.6166 34.7418 13.7222C34.184 14.3216 33.6218 14.8772 32.9415 15.54C32.2255 16.24 31.5073 16.9379 30.7868 17.6335C30.0664 18.3291 29.3314 19.0422 28.5818 19.7729C27.6631 20.6675 26.7378 21.5863 25.8431 22.4722L25.1168 23.1941C24.7143 23.5922 24.2987 24.0035 23.9006 24.4191C23.7777 24.5582 23.6275 24.6704 23.4592 24.7487C23.2909 24.827 23.1083 24.8697 22.9228 24.8741Z" fill="#EF556A"/>
<path d="M30.6906 8.64066C30.9968 8.64066 31.2177 8.80254 31.4934 9.07816C32.0169 9.60316 32.539 10.1311 33.0596 10.6619C33.5715 11.1825 34.0855 11.7054 34.6018 12.2238C34.6966 12.311 34.7727 12.4166 34.8253 12.5341C34.8779 12.6517 34.906 12.7787 34.9078 12.9075C34.9097 13.0363 34.8852 13.1641 34.836 13.2831C34.7868 13.4022 34.7138 13.5099 34.6215 13.5997C34.0681 14.1969 33.5059 14.7504 32.8277 15.411C32.1132 16.1095 31.3957 16.8059 30.6752 17.5C29.9548 18.1942 29.2184 18.9088 28.4659 19.6438C27.5471 20.5407 26.6218 21.4594 25.7249 22.3475L25.1321 22.936L25.0031 23.0628C24.6006 23.4632 24.1827 23.8766 23.7824 24.2966C23.675 24.4205 23.5433 24.5209 23.3954 24.5917C23.2475 24.6624 23.0866 24.702 22.9227 24.7078C22.7731 24.7034 22.6258 24.6691 22.4894 24.6072C22.3531 24.5452 22.2305 24.4567 22.1287 24.3469C21.0765 23.2991 19.9981 22.2119 18.8277 21.0263C18.4624 20.6544 18.4362 20.2366 18.7556 19.8779C19.2237 19.3572 19.7377 18.8563 20.2343 18.3685L20.604 18.0054C21.3098 17.3097 22.0171 16.6163 22.7259 15.925L24.4212 14.2625L26.2499 12.4688C27.0316 11.6988 27.8125 10.9302 28.5927 10.1632C28.8115 9.94441 29.0302 9.74754 29.249 9.54848C29.4677 9.34941 29.7193 9.11098 29.949 8.89223C30.0186 8.81707 30.1028 8.75695 30.1964 8.71557C30.2901 8.67418 30.3913 8.65241 30.4937 8.6516H30.6162H30.7037M30.7037 8.32348C30.6643 8.3213 30.6249 8.3213 30.5856 8.32348C30.555 8.32133 30.5243 8.32133 30.4937 8.32348C30.3485 8.32493 30.2051 8.35527 30.0717 8.41274C29.9384 8.4702 29.8179 8.55363 29.7171 8.65816C29.2796 9.09566 28.8115 9.50254 28.3696 9.93566C26.9784 11.3007 25.5959 12.6722 24.2134 14.0394C22.9424 15.2885 21.6649 16.531 20.3962 17.7822C19.7662 18.4035 19.1231 19.0138 18.5346 19.67C18.0971 20.1688 18.1452 20.7879 18.6177 21.2669C19.7129 22.3796 20.8133 23.4872 21.9187 24.5897C22.0505 24.7306 22.2092 24.8437 22.3854 24.9222C22.5616 25.0007 22.7517 25.0431 22.9446 25.0469C23.1523 25.0399 23.3563 24.9907 23.5443 24.9023C23.7324 24.814 23.9005 24.6883 24.0384 24.5329C24.4759 24.0735 24.9287 23.6272 25.3793 23.181C26.4884 22.0872 27.5952 20.9804 28.713 19.8888C30.1634 18.4735 31.6246 17.0713 33.0749 15.656C33.6874 15.0588 34.2977 14.4594 34.8796 13.8316C35.0003 13.711 35.0955 13.5674 35.1596 13.4093C35.2237 13.2512 35.2554 13.0818 35.2527 12.9112C35.2501 12.7406 35.2132 12.5723 35.1442 12.4163C35.0752 12.2602 34.9756 12.1196 34.8512 12.0029C33.8143 10.9572 32.7818 9.90285 31.7427 8.85723C31.4606 8.57285 31.1565 8.32129 30.7081 8.32129L30.7037 8.32348Z" fill="#EE1D22"/>
<path d="M16.4937 31.1698C16.1918 31.1698 15.8768 30.9926 15.4962 30.6098L14.2996 29.4045C12.7217 27.8164 11.1452 26.2261 9.57024 24.6336C8.95556 24.0079 8.95774 23.5179 9.58556 22.8836C10.5816 21.8875 11.5798 20.8951 12.5802 19.9064C12.6889 19.784 12.8209 19.6845 12.9685 19.6139C13.1162 19.5433 13.2765 19.5029 13.4399 19.4951C13.6126 19.5046 13.7817 19.5482 13.9375 19.6233C14.0933 19.6983 14.2327 19.8035 14.3477 19.9326C16.3712 21.9779 18.4077 24.0145 20.3787 25.9854C20.6937 26.3004 20.8162 26.5607 20.7943 26.8823V26.9064C20.8036 27.0406 20.7817 27.1752 20.7305 27.2996C20.6793 27.4241 20.6001 27.535 20.499 27.6239C20.0899 28.0286 19.6852 28.4354 19.2784 28.8423C18.6877 29.4329 18.0774 30.0432 17.4715 30.6361C17.0996 31.0014 16.789 31.1698 16.4937 31.1698Z" fill="#498CBB"/>
<path d="M13.44 19.6523C13.5917 19.6633 13.7398 19.7041 13.8757 19.7724C14.0116 19.8407 14.1326 19.9352 14.2319 20.0505C16.2532 22.0936 18.2897 24.1323 20.2629 26.1033C20.5407 26.3811 20.6479 26.6042 20.6304 26.8733V26.9236C20.6384 27.0339 20.6202 27.1445 20.5772 27.2464C20.5342 27.3483 20.4677 27.4386 20.3832 27.5098C19.9719 27.9167 19.565 28.3258 19.156 28.7348C18.5675 29.3233 17.9594 29.9314 17.3579 30.522C17.0232 30.848 16.741 31.0055 16.4938 31.0055C16.2466 31.0055 15.96 30.8436 15.6188 30.4936L14.4704 29.3364C12.9019 27.7592 11.2832 26.1273 9.69504 24.5239C9.13941 23.9595 9.14379 23.5789 9.71035 23.008C10.5985 22.1155 11.55 21.1661 12.7028 20.022C12.7966 19.9152 12.9106 19.8281 13.0383 19.7658C13.1659 19.7034 13.3047 19.6671 13.4466 19.6589M13.4466 19.3308C13.2617 19.3374 13.08 19.3809 12.9121 19.4587C12.7442 19.5364 12.5935 19.6469 12.4688 19.7836C11.4698 20.7767 10.4716 21.7728 9.4741 22.7717C8.78722 23.4608 8.77629 24.0536 9.45879 24.7405C11.4305 26.7398 13.4058 28.7327 15.3847 30.7189C15.7872 31.1236 16.1416 31.327 16.4982 31.327C16.8547 31.327 17.196 31.1345 17.5919 30.7495C18.6113 29.7542 19.6088 28.737 20.6216 27.7352C20.7365 27.6313 20.8263 27.5027 20.8842 27.3591C20.9422 27.2155 20.9668 27.0606 20.9563 26.9061C20.9624 26.7116 20.924 26.5182 20.844 26.3408C20.764 26.1634 20.6446 26.0066 20.4947 25.8823C18.4808 23.8611 16.4705 21.8398 14.4638 19.8186C14.3349 19.6719 14.1779 19.5525 14.002 19.4676C13.8262 19.3827 13.6351 19.3339 13.44 19.3242L13.4466 19.3308Z" fill="#0B6DA0"/>
</g>
<defs>
<linearGradient id="paint0_linear_2230_1803" x1="4.22406" y1="-0.7175" x2="51.7759" y2="56.7175" gradientUnits="userSpaceOnUse">
<stop offset="0.1" stop-color="#E75265"/>
<stop offset="0.38" stop-color="#F79A13"/>
<stop offset="0.65" stop-color="#71B426"/>
<stop offset="0.9" stop-color="#4388BB"/>
</linearGradient>
<clipPath id="clip0_2230_1803">
<rect width="56" height="56" fill="white"/>
</clipPath>
</defs>
</svg>
