<svg width="184" height="48" viewBox="0 0 184 48" fill="none" xmlns="http://www.w3.org/2000/svg">
<g clip-path="url(#clip0_2082_6036)">
<path d="M87.2372 4.07991C87.2372 3.71406 87.1439 3.54501 86.7503 3.57528C86.397 3.60304 86.0413 3.57528 85.688 3.57528C85.0648 3.57528 85.0648 3.57528 85.0648 4.2212C85.0648 7.20859 85.0648 10.1951 85.0648 13.1808C85.0648 13.3095 85.0648 13.4331 85.0648 13.5669C85.0648 13.6451 85.0648 13.7384 84.9866 13.7763C84.9084 13.8141 84.8075 13.7334 84.7545 13.6577C84.4517 13.2439 84.1666 12.8175 83.8512 12.4138C81.8983 9.89068 79.8823 7.43567 78.0101 4.8646C77.2709 3.85535 76.4963 3.37596 75.2599 3.5551C74.8512 3.61565 74.7149 3.69892 74.72 4.11776C74.7376 6.22205 74.72 8.32381 74.72 10.4256C74.72 12.5273 74.72 14.6972 74.72 16.8318C74.72 17.1825 74.8184 17.3364 75.1868 17.3036C75.556 17.2683 75.9277 17.2683 76.2969 17.3036C76.8016 17.3617 76.9075 17.1472 76.9025 16.6779C76.8848 13.6905 76.9025 10.7031 76.9025 7.71826C76.9025 7.5694 76.8192 7.34736 77.0059 7.29185C77.1926 7.23634 77.2582 7.45838 77.3466 7.57949C78.7469 9.42137 80.2179 11.2052 81.5728 13.0799C82.4937 14.3566 83.5131 15.5627 84.4593 16.8217C84.5631 16.9908 84.7137 17.1262 84.8927 17.2117C85.0718 17.2972 85.2717 17.3291 85.4685 17.3036C85.8883 17.2693 86.3103 17.2693 86.7301 17.3036C87.1312 17.3339 87.2524 17.1901 87.2524 16.799C87.2305 12.5585 87.2254 8.31877 87.2372 4.07991Z" fill="#282D30"/>
<path d="M104.241 8.83097C104.241 7.2414 104.241 5.65183 104.241 4.06226C104.241 3.71154 104.137 3.55763 103.774 3.58539C103.371 3.6081 102.968 3.6081 102.565 3.58539C102.202 3.56773 102.035 3.67622 102.061 4.07235C102.091 4.57698 102.061 5.09926 102.061 5.61398C102.061 8.14889 102.061 10.6855 102.061 13.2237C102.061 13.418 102.177 13.7082 101.952 13.7864C101.728 13.8646 101.672 13.5669 101.558 13.4205C101.306 13.1052 101.107 12.7595 100.862 12.4441C98.9067 9.92349 96.8881 7.46091 95.0286 4.8848C94.2717 3.85032 93.4844 3.38858 92.238 3.56268C91.8469 3.61819 91.7334 3.71154 91.7334 4.10263C91.7485 6.22206 91.7334 8.34149 91.7334 10.4609C91.7334 12.5803 91.7334 14.6998 91.7334 16.8192C91.7334 17.1951 91.8394 17.344 92.238 17.3238C92.5913 17.291 92.9469 17.291 93.3003 17.3238C93.7822 17.3768 93.9336 17.2229 93.931 16.7208C93.9058 13.799 93.931 10.8747 93.931 7.95292C93.931 7.82424 93.931 7.70061 93.931 7.56688C93.931 7.43316 93.9058 7.35746 94.0143 7.31457C94.1228 7.27168 94.2035 7.40036 94.2666 7.47353C94.3211 7.53261 94.3709 7.59588 94.4155 7.66276C96.5223 10.4004 98.6922 13.09 100.706 15.8932C101.511 17.016 102.366 17.5358 103.733 17.339C104.145 17.2809 104.278 17.2078 104.276 16.7864C104.233 14.1295 104.241 11.4702 104.241 8.83097Z" fill="#282D30"/>
<path d="M143.695 3.21698C139.625 3.21698 136.501 6.27249 136.501 10.2489C136.501 14.3818 139.544 17.4096 143.697 17.4096C147.363 17.4777 150.875 14.8183 150.898 10.2969C150.921 6.14381 147.658 3.2195 143.695 3.21698ZM143.712 15.4365C140.937 15.4516 138.737 13.1657 138.744 10.254C138.729 9.59432 138.846 8.93833 139.089 8.32454C139.331 7.71075 139.693 7.15153 140.154 6.67972C140.616 6.20791 141.167 5.83303 141.775 5.57709C142.383 5.32115 143.036 5.1893 143.696 5.1893C144.356 5.1893 145.009 5.32115 145.617 5.57709C146.225 5.83303 146.776 6.20791 147.237 6.67972C147.699 7.15153 148.061 7.71075 148.303 8.32454C148.545 8.93833 148.662 9.59432 148.648 10.254C148.65 13.148 146.48 15.4214 143.712 15.4365Z" fill="#282D30"/>
<path d="M69.6913 11.9597C68.6821 9.66865 67.6728 7.38101 66.6636 5.09674C66.4441 4.59211 66.3684 3.94367 65.9344 3.66865C65.5004 3.39363 64.8671 3.62071 64.3247 3.57529C64.1653 3.54161 63.9991 3.57086 63.8609 3.65692C63.7226 3.74298 63.623 3.87919 63.5829 4.03703C62.2027 7.22878 60.7469 10.3903 59.4046 13.5997C58.9403 14.7073 58.4432 15.8049 57.9462 16.8974C57.7998 17.2204 57.8604 17.3238 58.2162 17.3087C58.7208 17.286 59.2254 17.2835 59.7149 17.3087C59.8435 17.3336 59.9767 17.3075 60.0864 17.2359C60.1962 17.1643 60.2737 17.0529 60.3028 16.9252C60.6308 16.1228 60.9941 15.3356 61.312 14.5358C61.3442 14.4125 61.4187 14.3046 61.5225 14.2308C61.6263 14.1569 61.7528 14.122 61.8797 14.1321C63.8461 14.1422 65.8099 14.1422 67.7712 14.1321C67.8904 14.1195 68.0103 14.1478 68.1112 14.2125C68.2121 14.2772 68.288 14.3743 68.3263 14.4878C68.5786 15.0782 68.8966 15.6459 69.0984 16.254C69.3709 17.0715 69.7822 17.5812 70.7334 17.3062C71.0084 17.3062 71.2834 17.3062 71.5559 17.3062C71.8991 17.3289 71.9874 17.2355 71.8385 16.8974C71.1144 15.2574 70.413 13.6047 69.6913 11.9597ZM66.8099 12.0631C66.1665 12.0505 65.5206 12.0631 64.8772 12.0631H62.8991C62.5635 12.0631 62.4121 11.9798 62.5786 11.6089C63.27 10.0749 63.9437 8.53324 64.6325 6.99665C64.6754 6.90078 64.688 6.74434 64.8167 6.74434C64.9933 6.72416 64.9983 6.90835 65.0437 6.99665C65.7376 8.53072 66.4163 10.0723 67.1127 11.6039C67.2717 11.9597 67.1707 12.0681 66.8099 12.0631Z" fill="#282D30"/>
<path d="M118.895 11.9823C117.752 9.38349 116.591 6.79224 115.461 4.18837C115.272 3.75187 115.062 3.49956 114.545 3.57273C114.21 3.60895 113.871 3.60895 113.536 3.57273C113.372 3.54321 113.203 3.57671 113.062 3.66654C112.922 3.75636 112.821 3.89588 112.779 4.05717C111.414 7.22117 109.968 10.365 108.638 13.5315C108.164 14.672 107.649 15.8023 107.142 16.9201C107.011 17.2128 107.059 17.3213 107.394 17.3061C107.899 17.2885 108.404 17.2809 108.893 17.3061C109.027 17.3285 109.164 17.2996 109.277 17.2252C109.39 17.1509 109.471 17.0365 109.504 16.9049C109.829 16.1026 110.19 15.3128 110.513 14.5155C110.541 14.3977 110.611 14.2939 110.709 14.223C110.807 14.1521 110.927 14.1189 111.048 14.1295C113.029 14.1396 115.009 14.1396 116.987 14.1295C117.099 14.1189 117.211 14.1456 117.305 14.2054C117.4 14.2653 117.472 14.3548 117.51 14.46C117.762 15.0504 118.077 15.6156 118.284 16.2262C118.564 17.0538 118.963 17.6064 119.95 17.3036C120.202 17.3036 120.467 17.3036 120.722 17.3036C121.085 17.3288 121.181 17.2329 121.022 16.8721C120.303 15.2498 119.609 13.6097 118.895 11.9823ZM116.041 12.0605C115.383 12.0605 114.722 12.0605 114.063 12.0605C113.405 12.0605 112.744 12.0605 112.082 12.0605C111.729 12.0605 111.616 11.9495 111.775 11.5963C112.466 10.0622 113.142 8.52058 113.828 6.984C113.871 6.89064 113.881 6.7443 114.02 6.73168C114.159 6.71907 114.179 6.8755 114.22 6.96381C114.926 8.52815 115.622 10.095 116.326 11.6594C116.47 11.9773 116.339 12.0631 116.041 12.0605Z" fill="#282D30"/>
<path d="M131.309 3.87302C129.918 3.4895 128.5 3.6207 127.272 3.58033C126.217 3.58033 125.347 3.60052 124.479 3.58033C124.042 3.56519 123.898 3.69387 123.901 4.14551C123.921 7.08244 123.901 10.0194 123.901 12.9538C123.901 14.2532 123.901 15.5551 123.901 16.8545C123.901 17.2128 124.012 17.3415 124.373 17.3188C124.774 17.2923 125.177 17.2923 125.579 17.3188C125.955 17.3465 126.083 17.2254 126.083 16.8343C126.061 15.8074 126.083 14.7805 126.071 13.7536C126.071 13.3776 126.194 13.249 126.575 13.249C127.378 13.2742 128.185 13.2792 128.987 13.249C130.146 13.2061 131.276 13.0446 132.326 12.4769C132.801 12.241 133.222 11.9084 133.561 11.5004C133.9 11.0924 134.151 10.618 134.296 10.1077C134.473 9.39117 134.537 8.65133 134.485 7.91507C134.44 5.80321 133.347 4.4382 131.309 3.87302ZM132.179 9.08328C131.881 10.3802 131.137 11.016 129.797 11.1321C128.738 11.2229 127.678 11.1951 126.616 11.2103C126.227 11.2103 126.073 11.0917 126.078 10.6855C126.096 9.14383 126.091 7.60472 126.078 6.06309C126.078 5.70228 126.169 5.52819 126.57 5.55847C127.019 5.58874 127.471 5.55847 127.923 5.55847C128.839 5.55847 129.752 5.53071 130.64 5.83096C131.685 6.18672 132.222 6.88563 132.235 7.97562C132.262 8.34572 132.243 8.71776 132.179 9.08328Z" fill="#282D30"/>
<path d="M180.5 10.5164C179.536 9.79731 178.405 9.48192 177.267 9.18923C176.53 9.02508 175.811 8.79106 175.118 8.49033C174.53 8.21278 174.121 7.79142 174.109 7.09252C174.088 6.08326 174.903 5.32633 176.064 5.26325C177.39 5.1712 178.71 5.51689 179.821 6.24727C180.109 6.4365 180.26 6.39865 180.434 6.12111C180.642 5.77778 180.873 5.44977 181.128 5.13961C181.408 4.80908 181.304 4.63499 180.969 4.4508C179.842 3.79296 178.583 3.39313 177.283 3.28007C175.814 3.14886 174.444 3.35576 173.21 4.23886C171.406 5.53574 171.333 8.60892 172.958 9.89319C173.786 10.5492 174.754 10.8772 175.751 11.1548C176.645 11.3499 177.522 11.6131 178.375 11.942C178.713 12.0708 179.002 12.3027 179.201 12.6047C179.399 12.9067 179.498 13.2636 179.483 13.6249C179.483 14.3415 178.993 14.9268 178.206 15.2044C177.481 15.4283 176.71 15.4622 175.968 15.3028C174.856 15.0965 173.817 14.6004 172.958 13.8646C172.706 13.6678 172.569 13.6552 172.378 13.9201C172.124 14.2745 171.846 14.6117 171.548 14.9294C171.295 15.1817 171.315 15.3507 171.603 15.5753C173.096 16.7974 174.973 17.4509 176.902 17.4197C177.048 17.4197 177.192 17.4197 177.338 17.4197C180.169 17.3692 181.837 15.6535 181.731 12.878C181.726 12.4153 181.612 11.9602 181.398 11.5498C181.184 11.1394 180.876 10.7853 180.5 10.5164Z" fill="#282D30"/>
<path d="M162.033 15.2094C160.327 15.2321 158.622 15.2094 156.916 15.2094C156.495 15.2094 156.305 15.0934 156.326 14.6341C156.358 13.8343 156.326 13.0294 156.326 12.2271C156.326 9.51724 156.326 6.80488 156.326 4.09252C156.326 3.70648 156.23 3.52986 155.821 3.56266C155.435 3.59038 155.048 3.59038 154.663 3.56266C154.252 3.53238 154.158 3.70396 154.158 4.09252C154.173 6.20942 154.158 8.32633 154.158 10.4458C154.158 12.5652 154.158 14.6821 154.158 16.799C154.158 17.0336 154.1 17.3036 154.491 17.3036C157.082 17.3036 159.673 17.3036 162.265 17.3036C162.517 17.3036 162.618 17.2103 162.616 16.9655C162.596 16.5806 162.596 16.1949 162.616 15.8099C162.671 15.3507 162.49 15.2019 162.033 15.2094Z" fill="#282D30"/>
<path d="M167.228 3.57527C166.892 3.60303 166.552 3.57527 166.219 3.57527C165.578 3.57527 165.578 3.57527 165.578 4.20101C165.578 8.08495 165.578 11.968 165.578 15.8503C165.578 16.2187 165.578 16.5896 165.578 16.9579C165.578 17.2103 165.669 17.3087 165.921 17.3011C166.289 17.3011 166.66 17.3011 167.031 17.3011C167.745 17.3011 167.748 17.3011 167.748 16.6123V10.4533C167.748 8.3339 167.748 6.21699 167.748 4.09756C167.75 3.70395 167.634 3.53238 167.228 3.57527Z" fill="#282D30"/>
<path d="M111.197 24.8074C111.197 24.5147 111.096 24.4062 110.803 24.4138C110.299 24.4289 109.771 24.4415 109.259 24.4138C109.117 24.3945 108.974 24.4263 108.853 24.5035C108.733 24.5808 108.644 24.6983 108.603 24.8352C107.806 26.5181 106.993 28.1909 106.181 29.8663C106.097 30.0353 106.055 30.2347 105.86 30.3482C105.727 30.2341 105.629 30.0845 105.578 29.9167C104.957 28.6325 104.349 27.3406 103.718 26.0589C103.466 25.529 103.345 24.82 102.881 24.5198C102.416 24.2195 101.69 24.4769 101.087 24.4138C100.622 24.3659 100.521 24.5551 100.524 24.984C100.542 27.6661 100.524 30.3457 100.524 33.0278C100.524 34.1304 100.373 33.9437 101.46 33.9865C101.879 34.0017 102.015 33.8831 102.01 33.4491C101.99 31.3146 102.01 29.18 102.01 27.0454C102.01 26.8865 101.952 26.6997 102.093 26.566C102.142 26.5849 102.186 26.6141 102.222 26.6516C102.258 26.689 102.286 26.7339 102.303 26.783C103.287 28.7864 104.354 30.7468 105.27 32.7805C105.307 32.8947 105.384 32.9917 105.487 33.0541C105.59 33.1166 105.711 33.1403 105.83 33.1211C106.082 33.1211 106.289 33.1211 106.418 32.8259C107.311 30.8377 108.358 28.9226 109.325 26.9672C109.398 26.8209 109.423 26.6241 109.655 26.566C109.716 26.7268 109.735 26.9005 109.711 27.0706C109.711 29.0286 109.711 30.9865 109.711 32.9445C109.711 34.1405 109.496 33.9537 110.763 33.9739C111.071 33.9739 111.192 33.8856 111.192 33.5652C111.187 30.6468 111.188 27.7275 111.197 24.8074Z" fill="#282D30"/>
<path d="M64.8142 30.762C64.6804 30.5727 64.5618 30.4163 64.8974 30.2952C66.5198 29.7073 66.8327 28.1909 66.5753 26.6291C66.5244 26.2438 66.3741 25.8783 66.1392 25.5687C65.9043 25.259 65.5928 25.0158 65.2355 24.8629C64.7769 24.6685 64.2909 24.5468 63.7948 24.5021C62.4298 24.3482 61.0597 24.4592 59.6947 24.4062C59.2557 24.3911 59.1573 24.545 59.1598 24.9588C59.175 27.6383 59.1598 30.3179 59.1598 32.9975C59.1598 34.1354 58.9782 33.9436 60.1691 33.979C60.5223 33.979 60.6535 33.8806 60.6434 33.5172C60.6207 32.7149 60.6434 31.9125 60.6434 31.1102C60.6434 30.7595 60.7519 30.6055 61.1102 30.6207C61.5119 30.6421 61.9145 30.6421 62.3163 30.6207C62.4812 30.599 62.6488 30.6267 62.7979 30.7004C62.947 30.7741 63.071 30.8903 63.1539 31.0345C63.7368 31.9176 64.3499 32.7805 64.9479 33.6535C65.0589 33.815 65.1573 33.9714 65.3945 33.9664C65.8991 33.9664 66.4189 33.9664 67.0547 33.9664C66.8831 33.714 66.7822 33.5828 66.6838 33.439C66.0597 32.5475 65.4365 31.6552 64.8142 30.762ZM63.7772 29.2254C62.8486 29.3894 61.9126 29.3036 60.9815 29.3213C60.7292 29.3213 60.646 29.1976 60.646 28.963C60.646 28.0143 60.646 27.0681 60.646 26.1194C60.646 25.8671 60.757 25.7788 60.9967 25.7838C61.4004 25.7838 61.8015 25.7838 62.3112 25.7838C62.7502 25.8166 63.2952 25.741 63.8402 25.8671C64.7637 26.0765 65.1548 26.5332 65.1523 27.4743C65.1497 28.4685 64.6779 29.0639 63.7772 29.2254Z" fill="#282D30"/>
<path d="M137.96 24.222C135.091 24.222 132.913 26.2885 132.913 29.0412C132.913 31.6552 134.884 34.0749 137.902 34.0648C140.919 34.0547 142.847 31.7284 142.88 29.0715C142.915 26.3541 140.73 24.222 137.96 24.222ZM137.869 32.6039C137.415 32.5987 136.966 32.5033 136.549 32.3232C136.132 32.1431 135.756 31.882 135.441 31.5549C135.125 31.2279 134.879 30.8415 134.714 30.4182C134.55 29.9949 134.471 29.5431 134.483 29.0892C134.483 27.0707 135.934 25.5845 137.904 25.5845C139.875 25.5845 141.328 27.0984 141.326 29.0967C141.334 29.5551 141.25 30.0106 141.08 30.4363C140.91 30.862 140.656 31.2494 140.334 31.5758C140.012 31.9022 139.628 32.1611 139.205 32.3372C138.782 32.5133 138.327 32.6031 137.869 32.6014V32.6039Z" fill="#282D30"/>
<path d="M157.226 24.222C154.398 24.222 152.248 26.3112 152.246 29.0589C152.235 29.714 152.355 30.3647 152.599 30.9728C152.843 31.5809 153.206 32.1341 153.667 32.6001C154.127 33.0661 154.676 33.4355 155.281 33.6866C155.887 33.9376 156.536 34.0654 157.191 34.0622C160.171 34.0774 162.177 31.7662 162.199 29.0564C162.222 26.3465 160.042 24.222 157.226 24.222ZM157.226 32.6039C155.304 32.6039 153.8 31.0648 153.8 29.0715C153.8 27.0782 155.256 25.5744 157.229 25.577C159.202 25.5795 160.648 27.0908 160.643 29.1093C160.649 29.5625 160.566 30.0124 160.398 30.4333C160.23 30.8543 159.981 31.2379 159.664 31.5623C159.348 31.8867 158.971 32.1455 158.554 32.3238C158.137 32.5021 157.69 32.5964 157.236 32.6014L157.226 32.6039Z" fill="#282D30"/>
<path d="M77.4601 29.2456C77.4601 27.9462 77.4601 26.6442 77.4601 25.3448C77.4601 24.27 77.6215 24.4491 76.5013 24.4113C76.1102 24.4113 75.9638 24.5097 75.9739 24.9159C75.9992 25.9731 75.9739 27.0328 75.9739 28.0925C75.9739 28.3978 75.9109 28.5669 75.5475 28.5618C74.1951 28.5467 72.8427 28.5618 71.4903 28.5618C71.1775 28.5618 71.0664 28.4559 71.0715 28.1455C71.0841 27.1993 71.0715 26.2506 71.0715 25.3045C71.0715 24.2776 71.2027 24.4542 70.1707 24.4062C69.6913 24.3835 69.5828 24.5526 69.5854 25.0042C69.6056 27.6686 69.5854 30.3331 69.598 32.9975C69.598 34.1354 69.4163 33.9437 70.6072 33.979C70.963 33.979 71.0892 33.8806 71.0841 33.5172C71.0639 32.4903 71.0841 31.4609 71.069 30.434C71.069 30.0631 71.18 29.9294 71.5736 29.9294C72.8781 29.947 74.1825 29.9445 75.487 29.9294C75.8705 29.9294 75.9916 30.0656 75.9916 30.434C75.9739 31.3019 75.9916 32.1674 75.9916 33.0353C75.9916 34.1278 75.8478 33.9336 76.9428 33.979C77.3818 33.9966 77.4853 33.8427 77.4802 33.4289C77.4449 32.0437 77.4601 30.6409 77.4601 29.2456Z" fill="#282D30"/>
<path d="M86.7401 32.4752C85.4054 32.508 84.0681 32.4752 82.7309 32.4954C82.2666 32.4954 82.0496 32.3894 82.0925 31.8797C82.1341 31.3835 82.1341 30.8847 82.0925 30.3885C82.0496 29.8839 82.2414 29.7477 82.7208 29.7603C83.8789 29.7855 85.0395 29.7603 86.1976 29.7603C86.5559 29.7603 86.7023 29.6341 86.6695 29.2834C86.6594 29.1709 86.6594 29.0578 86.6695 28.9453C86.7073 28.5795 86.5786 28.4407 86.1825 28.4407C84.9916 28.4659 83.7981 28.4407 82.6072 28.4584C82.201 28.4584 82.0749 28.3272 82.1026 27.9335C82.1316 27.4049 82.1316 26.8751 82.1026 26.3465C82.0774 25.9277 82.2237 25.7788 82.6476 25.7864C83.889 25.8065 85.1278 25.7864 86.3692 25.7864C87.3633 25.7864 87.2044 25.8848 87.2346 24.9007C87.2346 24.5425 87.1665 24.3961 86.7578 24.3961C84.8755 24.4163 82.9908 24.4138 81.106 24.3961C80.7628 24.3961 80.6215 24.4769 80.6241 24.8503C80.6375 27.7418 80.6375 30.6316 80.6241 33.5198C80.6241 33.8503 80.7225 33.9739 81.0656 33.9663C82.0294 33.9487 82.9958 33.9663 83.9622 33.9663C84.9285 33.9663 85.8949 33.9512 86.8612 33.9663C87.2422 33.9663 87.4012 33.8503 87.3659 33.4743C87.3507 33.3461 87.3507 33.2165 87.3659 33.0883C87.4264 32.624 87.2372 32.4651 86.7401 32.4752Z" fill="#282D30"/>
<path d="M122.185 32.132C121.176 29.8309 120.121 27.5425 119.157 25.2212C118.89 24.5828 118.569 24.3406 117.883 24.3986C117.479 24.434 117.255 24.5223 117.091 24.9033C115.943 27.6182 114.679 30.2826 113.559 33.0126C113.165 33.9764 113.152 33.9487 114.194 33.979C114.361 34.0077 114.533 33.9714 114.673 33.8776C114.814 33.7837 114.914 33.6394 114.951 33.4743C115.128 32.9697 115.347 32.4954 115.534 32.0008C115.563 31.8922 115.63 31.7974 115.722 31.7336C115.815 31.6698 115.927 31.6411 116.039 31.6526C117.359 31.6627 118.679 31.6627 119.998 31.6526C120.11 31.6429 120.222 31.6729 120.314 31.7375C120.406 31.8021 120.473 31.8971 120.502 32.0059C120.666 32.4222 120.868 32.8259 121.007 33.2498C121.186 33.7923 121.463 34.1304 122.016 33.9588C122.248 33.9588 122.395 33.9462 122.538 33.9588C122.942 34.0042 122.957 33.8553 122.803 33.5324C122.556 33.0883 122.392 32.6013 122.185 32.132ZM119.344 30.3002C118.895 30.3002 118.443 30.3002 117.992 30.3002C117.54 30.3002 117.124 30.3002 116.69 30.3002C116.437 30.3002 116.326 30.2195 116.437 29.9621C116.9 28.9226 117.363 27.8822 117.828 26.841C117.866 26.7578 117.888 26.6417 118.009 26.6442C118.13 26.6468 118.153 26.7628 118.188 26.8436C118.655 27.8831 119.112 28.9251 119.581 29.9621C119.7 30.2296 119.596 30.3053 119.344 30.3002Z" fill="#282D30"/>
<path d="M172.375 30.9865C172.375 30.7771 172.375 30.5677 172.375 30.3608C172.347 29.1623 172.627 29.3515 171.278 29.3263C170.972 29.3263 170.889 29.4499 170.894 29.73C170.907 30.3406 170.894 30.9512 170.894 31.5593C170.906 31.6783 170.879 31.7981 170.816 31.8998C170.753 32.0016 170.658 32.0797 170.546 32.1219C169.842 32.447 169.065 32.581 168.293 32.5105C167.751 32.4991 167.222 32.3444 166.759 32.0621C166.296 31.7798 165.917 31.38 165.659 30.9033C165.281 30.2352 165.127 29.4643 165.218 28.7025C165.308 27.9407 165.64 27.2277 166.163 26.6669C167.203 25.6072 169.128 25.3473 170.513 26.0765C171.172 26.4222 171.172 26.4222 171.608 25.7914C171.624 25.7626 171.642 25.7355 171.664 25.7107C171.916 25.4583 171.833 25.2842 171.563 25.1026C170.992 24.7088 170.346 24.4358 169.666 24.3005C168.985 24.1651 168.285 24.1702 167.606 24.3154C165.606 24.709 164.296 25.9125 163.796 27.8856C163.292 29.9268 163.897 31.6905 165.477 33.0277C167.107 34.4054 169.907 34.4129 171.676 33.2144C172.156 32.889 172.433 32.5105 172.365 31.8999C172.349 31.5955 172.353 31.2905 172.375 30.9865Z" fill="#282D30"/>
<path d="M97.6628 27.6712C97.6628 26.778 97.6628 26.0715 97.6628 25.3675C97.6502 24.2649 97.8369 24.4466 96.6788 24.4088C96.3053 24.4088 96.1741 24.5046 96.1741 24.8957C96.1943 26.4348 96.1741 27.9765 96.1741 29.5156C96.1752 29.8839 96.1406 30.2515 96.0707 30.6131C95.8386 31.7864 94.9706 32.5686 93.8579 32.6039C92.5812 32.6442 91.6905 31.9983 91.3651 30.7822C91.2426 30.317 91.1823 29.8376 91.1859 29.3566C91.1859 28.0421 91.1859 26.725 91.1859 25.4104C91.1859 24.2498 91.3524 24.4466 90.1943 24.4012C89.8209 24.4012 89.6897 24.492 89.6897 24.8831C89.7099 26.5534 89.6897 28.2212 89.6897 29.889C89.6897 31.0143 90.0026 32.069 90.7772 32.894C91.8545 34.032 93.2397 34.2792 94.7284 33.9613C96.217 33.6434 97.0396 32.6468 97.4382 31.2565C97.8167 30.0252 97.6048 28.746 97.6628 27.6712Z" fill="#282D30"/>
<path d="M182.114 24.492C182.003 24.2801 181.549 24.4643 181.251 24.4138C180.8 24.3406 180.56 24.5526 180.343 24.9184C179.662 26.1018 178.938 27.2574 178.241 28.4306C178.057 28.741 177.936 28.741 177.752 28.4306C177.182 27.4643 176.596 26.5055 176.016 25.5417C175.307 24.3634 175.31 24.3608 173.924 24.4113C173.865 24.4225 173.806 24.4369 173.748 24.4542C174.454 25.5997 175.05 26.7679 175.834 27.7948C176.975 29.2565 177.495 31.1078 177.283 32.9496C177.182 34.1304 177.086 33.9336 178.292 33.9714C178.648 33.9714 178.774 33.8705 178.766 33.5072C178.743 32.5761 178.766 31.6451 178.751 30.7141C178.735 30.3151 178.846 29.9213 179.066 29.5888C179.97 28.1657 180.855 26.73 181.736 25.2994C181.885 25.0395 182.251 24.7494 182.114 24.492Z" fill="#282D30"/>
<path d="M130.87 24.4112C128.924 24.4264 126.976 24.4112 125.029 24.4112C124.002 24.4112 124.14 24.2346 124.113 25.3372C124.113 25.6678 124.211 25.7939 124.552 25.7838C125.213 25.7636 125.874 25.7838 126.532 25.7838C126.916 25.7687 127.037 25.8999 127.037 26.2885C127.017 27.492 127.037 28.6955 127.037 29.8991C127.037 31.1026 127.055 32.2733 127.037 33.4617C127.037 33.8932 127.171 34.0521 127.587 33.989C127.671 33.9822 127.755 33.9822 127.839 33.989C128.538 33.989 128.538 33.989 128.538 33.2826C128.538 30.9714 128.538 28.6627 128.538 26.3515C128.538 25.9932 128.586 25.7662 129.043 25.7964C129.547 25.8292 130.072 25.7964 130.587 25.7964C131.546 25.7964 131.43 25.9504 131.463 24.9209C131.425 24.4743 131.248 24.4087 130.87 24.4112Z" fill="#282D30"/>
<path d="M150.459 32.46C149.382 32.4802 148.304 32.46 147.224 32.46C146.791 32.46 146.647 32.3263 146.652 31.8797C146.674 29.6972 146.667 27.5172 146.652 25.3347C146.652 24.2624 146.796 24.439 145.743 24.3961C145.309 24.381 145.156 24.497 145.166 24.9537C145.196 26.3667 145.166 27.7771 145.166 29.1901C145.166 30.603 145.166 32.0462 145.166 33.4794C145.166 33.8528 145.264 33.984 145.67 33.984C147.134 33.9613 148.597 33.984 150.063 33.9714C151.156 33.9714 150.986 34.1606 151.027 32.9949C151.039 32.5483 150.86 32.4525 150.459 32.46Z" fill="#282D30"/>
<path d="M183.54 41.8057C183.444 41.5383 183.141 41.6669 182.934 41.6669C174.849 41.6669 166.764 41.6669 158.68 41.6669H134.084C134.02 41.6579 133.956 41.6735 133.903 41.7106C133.851 41.7476 133.814 41.8033 133.802 41.8663C133.595 42.5273 133.824 42.8452 134.513 42.8452H183.315C183.416 42.8452 183.527 42.82 183.548 42.714C183.623 42.4156 183.62 42.1028 183.54 41.8057Z" fill="#282D30"/>
<path d="M107.975 41.6619H59.2381C59.1397 41.6619 59.0261 41.6846 59.0085 41.7956C58.9306 42.0908 58.9306 42.4012 59.0085 42.6964C59.1069 42.9638 59.4071 42.8326 59.6165 42.8326C67.6805 42.8326 75.7461 42.8326 83.8133 42.8326H108.399C108.463 42.8416 108.528 42.8256 108.58 42.7881C108.633 42.7505 108.669 42.6942 108.681 42.6308C108.886 41.9647 108.669 41.6619 107.975 41.6619Z" fill="#282D30"/>
<path d="M126.502 40.1379C126.012 39.7665 125.402 39.587 124.789 39.6333C123.3 39.6787 122.266 40.7536 122.281 42.2826C122.294 43.7384 123.351 44.7805 124.882 44.7855C125.447 44.8092 126 44.6191 126.431 44.2532C126.724 44.021 126.684 43.7662 126.358 43.6072C126.119 43.4937 126.018 43.7309 125.854 43.8167C125.553 44.0075 125.204 44.1067 124.848 44.1022C124.492 44.0977 124.146 43.9897 123.85 43.7914C123.106 43.3095 122.95 42.5652 123.093 41.7603C123.141 41.4305 123.289 41.1233 123.517 40.8807C123.746 40.6382 124.044 40.4722 124.37 40.4054C124.663 40.311 124.974 40.2904 125.276 40.3454C125.579 40.4005 125.863 40.5294 126.103 40.7208C126.368 40.9403 126.484 40.7839 126.641 40.6047C126.84 40.3701 126.661 40.2515 126.502 40.1379Z" fill="#282D30"/>
<path d="M117 44.0664C116.516 44.0664 116.031 44.0513 115.552 44.0664C115.181 44.0841 115.047 43.9731 115.047 43.5795C115.07 42.439 115.047 41.3086 115.047 40.1606C115.047 39.9083 115.047 39.7241 114.704 39.7166C114.361 39.709 114.318 39.9033 114.32 40.1758C114.32 40.8494 114.32 41.5231 114.32 42.1943C114.32 42.9159 114.32 43.64 114.32 44.3616C114.32 44.6417 114.414 44.7679 114.714 44.7603C115.471 44.7477 116.228 44.7603 116.985 44.7603C117.237 44.7603 117.371 44.6997 117.373 44.4121C117.376 44.1245 117.257 44.0614 117 44.0664Z" fill="#282D30"/>
<path d="M121.191 44.0664C120.686 44.0664 120.162 44.0538 119.647 44.0664C119.306 44.0664 119.2 43.9453 119.205 43.6148C119.22 42.4592 119.205 41.3036 119.205 40.148C119.205 39.8957 119.183 39.7166 118.852 39.7191C118.521 39.7216 118.476 39.8755 118.479 40.1379C118.479 40.8293 118.479 41.5181 118.479 42.2094C118.479 42.9007 118.479 43.6526 118.479 44.3768C118.479 44.6291 118.547 44.7679 118.834 44.7628C119.624 44.7628 120.411 44.7628 121.201 44.7628C121.466 44.7628 121.524 44.6341 121.527 44.402C121.529 44.1699 121.441 44.0639 121.191 44.0664Z" fill="#282D30"/>
<path d="M127.829 43.8822C127.537 43.8822 127.4 44.0462 127.393 44.3389C127.388 44.3985 127.396 44.4585 127.417 44.5144C127.439 44.5704 127.472 44.6208 127.515 44.662C127.559 44.7032 127.611 44.7341 127.668 44.7524C127.725 44.7707 127.785 44.776 127.844 44.7679C127.905 44.7713 127.966 44.7621 128.024 44.7409C128.081 44.7197 128.133 44.6869 128.177 44.6446C128.221 44.6023 128.256 44.5513 128.28 44.4949C128.303 44.4386 128.315 44.378 128.313 44.3169C128.312 44.2558 128.299 44.1957 128.273 44.1401C128.248 44.0846 128.212 44.0348 128.166 43.994C128.121 43.9533 128.067 43.9223 128.009 43.903C127.951 43.8838 127.89 43.8767 127.829 43.8822Z" fill="#282D30"/>
<path d="M17.8663 20.069C17.5459 20.069 17.2027 19.8722 16.7889 19.4508L15.3911 18.0278C14.6291 17.2523 13.8663 16.4785 13.1026 15.7065C12.9657 15.5862 12.854 15.44 12.7739 15.2763C12.6937 15.1126 12.6468 14.9346 12.6359 14.7527C12.6433 14.4877 12.7443 14.2339 12.921 14.0362C13.0169 13.9327 13.1102 13.8267 13.2036 13.7233C13.4786 13.418 13.7612 13.1051 14.0539 12.8175L17.1573 9.7645C19.1405 7.83431 21.1943 5.84104 23.1699 3.86038C23.6039 3.42893 24.0354 2.99243 24.4643 2.55593C25.0396 1.97561 25.6325 1.37258 26.2305 0.789736C26.6014 0.426405 26.9294 0.249786 27.2397 0.249786C27.5501 0.249786 27.8831 0.431452 28.249 0.807398C29.4424 2.03364 30.6964 3.33053 32.0841 4.79646C32.6241 5.36165 32.614 5.97729 32.0564 6.53238C31.4988 7.08746 30.9084 7.66526 30.3306 8.22792C29.8949 8.6518 29.4601 9.07737 29.0261 9.50462L23.9698 14.4878L18.9235 19.4685C18.5097 19.8772 18.1666 20.069 17.8512 20.069H17.8663Z" fill="#EF556A"/>
<path d="M27.2347 0.504626C27.487 0.504626 27.7393 0.66106 28.0623 0.98402C29.2481 2.20521 30.5021 3.50715 31.8949 4.97309C32.3415 5.44239 32.3339 5.89403 31.8722 6.35576C31.302 6.92347 30.7141 7.49622 30.1464 8.0513C29.7099 8.47519 29.2759 8.89908 28.8419 9.32801C27.1598 10.9832 25.4828 12.6409 23.8108 14.3011L18.7645 19.2893C18.4037 19.6451 18.111 19.8167 17.8688 19.8167C17.6266 19.8167 17.3314 19.64 16.9706 19.2742C16.4912 18.7897 16.0135 18.3045 15.5375 17.8183L13.2666 15.5299C13.0435 15.3371 12.9026 15.0663 12.873 14.7729C12.8778 14.5677 12.9557 14.3709 13.0925 14.2178L13.3726 13.8923C13.6451 13.5921 13.9252 13.2792 14.2128 12.9966L17.3592 9.92851C19.3272 8.00336 21.3634 6.01514 23.3491 4.03701C23.7805 3.60555 24.2094 3.17157 24.6409 2.73507C25.2162 2.15223 25.8091 1.55172 26.4071 0.968881C26.7174 0.66106 26.9975 0.504626 27.2347 0.504626ZM27.2347 0C26.8512 0 26.4626 0.204373 26.0488 0.610597C25.0194 1.61985 24.0152 2.6619 22.9933 3.68125C19.9731 6.68882 16.905 9.65097 13.8772 12.6358C13.4786 13.0294 13.1203 13.4533 12.7343 13.8671C12.513 14.1145 12.3884 14.4335 12.3835 14.7654C12.4046 15.1977 12.596 15.6041 12.9159 15.8957C14.1497 17.1396 15.376 18.3911 16.6073 19.6375C17.0639 20.0992 17.4651 20.3314 17.8688 20.3314C18.2725 20.3314 18.6636 20.1068 19.1304 19.6577C22.4946 16.3389 25.8587 13.0185 29.2229 9.69638C30.2322 8.70227 31.2414 7.7233 32.2507 6.72414C32.9092 6.06813 32.9168 5.30109 32.2835 4.63499C31.0084 3.29773 29.7292 1.9672 28.4458 0.643398C28.0068 0.20942 27.6258 0 27.2347 0Z" fill="#EE1D22"/>
<path d="M42.7191 44.9369H42.6611C42.5007 44.9302 42.3434 44.8899 42.1996 44.8186C42.0557 44.7473 41.9284 44.6467 41.8259 44.5231C41.4096 44.1043 40.9958 43.6703 40.5971 43.249C40.2616 42.8982 39.9285 42.5475 39.5879 42.2019C38.3743 40.9655 37.1278 39.7216 35.9243 38.5181C34.3423 36.9411 32.7073 35.3087 31.1304 33.6762C28.9983 31.4634 26.7956 29.2532 24.6661 27.1161C23.4399 25.8848 22.217 24.6527 20.9975 23.4197C20.3717 22.7864 20.3692 22.0673 20.9975 21.4491C22.2288 20.2204 23.4651 18.9891 24.6964 17.7855C24.8034 17.6363 24.9447 17.5149 25.1084 17.4316C25.272 17.3482 25.4533 17.3054 25.637 17.3066C25.8206 17.3079 26.0013 17.3532 26.1639 17.4387C26.3264 17.5242 26.466 17.6475 26.5711 17.7982C27.053 18.2801 27.5374 18.7569 28.0219 19.2363C29.2077 20.4121 30.434 21.6257 31.5997 22.857C33.1968 24.545 34.8797 26.2153 36.4895 27.8276C37.9579 29.2935 39.4794 30.8099 40.9352 32.3339C42.222 33.6812 43.5568 35.0236 44.8486 36.3204C45.6896 37.1615 46.5307 38.0084 47.3717 38.8612C47.9975 39.5021 48.0025 40.0673 47.3894 40.693L43.6754 44.4777C43.567 44.6146 43.431 44.7271 43.2762 44.808C43.1214 44.8888 42.9514 44.9362 42.7771 44.947L42.7191 44.9369Z" fill="#FF9D3B"/>
<path d="M25.63 17.5585C25.9267 17.5958 26.1977 17.7458 26.3869 17.9773C26.8688 18.4592 27.3533 18.9386 27.8402 19.4205C29.0236 20.5913 30.2473 21.8024 31.4079 23.0286C33.0101 24.7216 34.688 26.392 36.3028 28.0068C37.7713 29.4727 39.2902 30.9866 40.746 32.508C42.0354 33.8579 43.3701 35.2002 44.6619 36.4996C45.487 37.3297 46.3423 38.1876 47.1851 39.0379C47.72 39.5854 47.725 39.984 47.2027 40.5164C46.5299 41.2111 45.8495 41.9042 45.1615 42.5955L43.4887 44.2936C43.4033 44.4055 43.2954 44.4984 43.172 44.5662C43.0486 44.6339 42.9124 44.6752 42.7721 44.6872H42.6661C42.5391 44.6794 42.415 44.6451 42.302 44.5864C42.189 44.5277 42.0896 44.446 42.0101 44.3465C41.5963 43.9327 41.1825 43.4988 40.7839 43.085C40.4559 42.7393 40.1153 42.3835 39.7746 42.0354C38.561 40.7965 37.3121 39.5501 36.106 38.3465C34.5265 36.7721 32.8941 35.1422 31.3121 33.5097C29.1775 31.2969 26.9723 29.0816 24.8377 26.9496C23.6418 25.7359 22.3979 24.4744 21.1943 23.2431C20.667 22.7082 20.6645 22.1481 21.1943 21.6283C22.4004 20.4046 23.6443 19.1758 24.873 17.9647C25.0641 17.7375 25.335 17.5921 25.63 17.5585ZM25.63 17.0539C25.4176 17.0681 25.2102 17.1243 25.0196 17.2191C24.8291 17.314 24.6592 17.4456 24.5198 17.6064C23.2818 18.8209 22.048 20.0421 20.8184 21.27C20.0968 21.9891 20.1018 22.8646 20.8184 23.5988C24.1918 27.0202 27.6132 30.3911 30.9487 33.8503C33.7242 36.7317 36.6031 39.5198 39.4037 42.3785C40.1607 43.1354 40.8848 43.9378 41.6418 44.6998C41.7674 44.8463 41.9218 44.9654 42.0954 45.0496C42.2691 45.1338 42.4582 45.1813 42.651 45.1893H42.757C42.9645 45.1781 43.1675 45.1239 43.353 45.0301C43.5384 44.9362 43.7024 44.8049 43.8344 44.6443C45.0724 43.3861 46.3104 42.1245 47.5484 40.8596C48.2599 40.1354 48.2574 39.4163 47.5307 38.6745C45.3962 36.4946 43.2162 34.3575 41.1068 32.1497C38.0438 28.9454 34.8217 25.8949 31.7713 22.6729C30.1388 20.9445 28.4231 19.2919 26.7402 17.6089C26.6004 17.445 26.4293 17.3105 26.237 17.2135C26.0446 17.1164 25.8348 17.0587 25.6199 17.0438L25.63 17.0539Z" fill="#FF5C24"/>
<path d="M5.44245 47.7477C5.14976 47.7477 4.82933 47.5685 4.46599 47.2002C3.22293 45.9436 1.9866 44.6846 0.756995 43.423C0.0934124 42.7443 0.0959356 42.1615 0.756995 41.5105C1.57785 40.7065 2.40039 39.9041 3.22462 39.1034C4.72588 37.6425 6.2776 36.1312 7.77886 34.6173C10.572 31.7914 13.4609 28.9705 16.2541 26.2405L16.8243 25.6804C17.2406 25.2742 17.5812 25.0849 17.8638 25.0849C18.1464 25.0849 18.482 25.2742 18.8731 25.6829L20.8083 27.6459L22.5265 29.3919C22.8318 29.6997 23.0034 29.947 22.9757 30.2927V30.3356C23.011 30.7039 22.7965 30.9512 22.471 31.2893C20.556 33.2573 18.5577 35.2052 16.625 37.0925C15.0076 38.6695 13.3323 40.3019 11.7175 41.9369C10.7562 42.9108 9.76204 43.8873 8.80325 44.8309C7.99333 45.6282 7.1834 46.423 6.38105 47.2279C6.03033 47.5811 5.71999 47.7527 5.43488 47.7527L5.44245 47.7477Z" fill="#7CBD40"/>
<path d="M17.8638 25.3348C18.0808 25.3348 18.3684 25.5063 18.704 25.8571L20.6291 27.81C21.2044 28.3987 21.7805 28.9874 22.3575 29.5761C22.6577 29.8814 22.7511 30.0581 22.736 30.2801V30.323V30.3659C22.7587 30.6182 22.6123 30.7973 22.2969 31.1228C20.3844 33.0883 18.3886 35.0362 16.4559 36.926C14.836 38.503 13.1758 40.1354 11.5459 41.7729C10.5972 42.7267 9.58793 43.7006 8.63671 44.6443C7.8394 45.429 7.01434 46.2389 6.21198 47.0463C5.90921 47.3491 5.65689 47.4954 5.44243 47.4954C5.22796 47.4954 4.96051 47.3415 4.64512 47.0236C3.32552 45.6914 2.12199 44.455 0.926028 43.2389C0.36337 42.6636 0.365893 42.2296 0.926028 41.6846C1.74352 40.8798 2.5812 40.0673 3.3886 39.2801C4.90248 37.8167 6.44663 36.3053 7.95042 34.7864C10.7486 31.9756 13.6249 29.1523 16.4256 26.4222L17.0009 25.8596C17.3617 25.5063 17.6443 25.3348 17.8638 25.3348ZM17.8638 24.8301C17.4853 24.8301 17.1069 25.0522 16.6476 25.4988C13.6199 28.4634 10.5921 31.4281 7.59718 34.4407C5.29861 36.7696 2.91678 39.0328 0.577836 41.3314C-0.179103 42.0883 -0.179103 42.8276 0.577836 43.6022C1.81417 44.8655 3.05387 46.127 4.29693 47.3869C4.7082 47.8007 5.08162 48.0076 5.45504 48.0076C5.82847 48.0076 6.1817 47.8083 6.58036 47.4096C8.34655 45.6434 10.1556 43.8999 11.9168 42.111C15.4492 38.5257 19.1531 35.0816 22.6703 31.466C22.9933 31.1354 23.2961 30.81 23.2507 30.3104C23.286 29.8436 23.0312 29.5206 22.7284 29.2153C21.5097 27.979 20.2961 26.7401 19.0749 25.5038C18.6333 25.0572 18.2574 24.8327 17.8764 24.8327L17.8638 24.8301Z" fill="#7BA262"/>
<path d="M10.0926 27.7847C9.93695 27.7775 9.78433 27.7394 9.64356 27.6727C9.50278 27.606 9.37667 27.512 9.27254 27.3961L8.5156 26.6392C7.29693 25.4584 6.05555 24.2372 4.89491 22.9857C4.28936 22.3398 3.66615 21.6989 3.05555 21.0908C2.64681 20.6897 2.23806 20.2632 1.83436 19.8444C1.15059 19.1329 1.15059 18.5828 1.83436 17.9066C3.04041 16.7039 4.25152 15.5055 5.46766 14.3112C5.70644 14.0342 6.04438 13.8621 6.40879 13.8318C6.58896 13.8461 6.76447 13.8961 6.92517 13.9789C7.08586 14.0616 7.22852 14.1754 7.34487 14.3137C8.78306 15.7519 10.2204 17.1934 11.6569 18.6383L14.7351 21.7292C14.8757 21.8501 14.988 22.0005 15.0639 22.1697C15.1398 22.3389 15.1774 22.5227 15.1741 22.7082C15.1748 22.8654 15.1423 23.0211 15.0789 23.165C15.0154 23.3088 14.9223 23.4378 14.8058 23.5433L13.6905 24.651C12.7873 25.5467 11.8562 26.4727 10.9302 27.3759C10.7152 27.6165 10.4145 27.7632 10.0926 27.7847Z" fill="#498CBB"/>
<path d="M6.41382 14.0841C6.70951 14.1154 6.98121 14.2612 7.17076 14.4903C8.61399 15.942 10.0614 17.3944 11.5131 18.8478L14.561 21.9058C14.6765 22.0047 14.7688 22.1279 14.8312 22.2666C14.8936 22.4053 14.9245 22.5561 14.9218 22.7082V22.7359C14.9213 22.8565 14.8954 22.9757 14.8459 23.0857C14.7963 23.1956 14.7242 23.294 14.6342 23.3743L13.5139 24.487C12.6157 25.3802 11.6846 26.3061 10.7612 27.2044C10.5889 27.3944 10.3507 27.5117 10.0951 27.5324C9.97271 27.5247 9.85308 27.4929 9.74308 27.4388C9.63309 27.3846 9.5349 27.3093 9.45419 27.217L8.68211 26.4601C7.48362 25.2792 6.24477 24.0606 5.08665 22.8141C4.48362 22.1657 3.85536 21.5299 3.24729 20.9167C2.84359 20.508 2.42475 20.0866 2.02357 19.6552C1.43316 19.0446 1.43316 18.6459 2.02357 18.0732C3.35579 16.746 4.5467 15.5702 5.65688 14.4777C5.84811 14.2507 6.11891 14.1054 6.41382 14.0715M6.41382 13.5669C6.20003 13.5826 5.99146 13.6404 5.80007 13.7369C5.60869 13.8335 5.43827 13.9669 5.29859 14.1295C4.08076 15.3255 2.86798 16.5248 1.66024 17.7275C0.86798 18.5147 0.878073 19.2136 1.66024 20.0185C2.66949 21.0706 3.72164 22.0849 4.71827 23.1573C6.1287 24.6712 7.6224 26.1194 9.09843 27.5753C9.22511 27.7145 9.37828 27.827 9.54897 27.9063C9.71967 27.9856 9.90446 28.03 10.0925 28.037C10.4775 28.0191 10.84 27.8505 11.1018 27.5677C12.4037 26.3061 13.6855 25.0118 14.9773 23.7325C15.1179 23.6049 15.2302 23.449 15.3067 23.2751C15.3832 23.1013 15.4222 22.9133 15.4214 22.7233C15.4257 22.5031 15.3829 22.2845 15.2958 22.0822C15.2088 21.8798 15.0796 21.6984 14.9168 21.55C12.4525 19.0807 9.98993 16.6072 7.52904 14.1295C7.38963 13.9672 7.21913 13.8345 7.02759 13.7392C6.83605 13.6438 6.62735 13.5878 6.41382 13.5744V13.5669Z" fill="#0B6DA0"/>
</g>
<defs>
<clipPath id="clip0_2082_6036">
<rect width="183.603" height="48" fill="white"/>
</clipPath>
</defs>
</svg>
