<svg width="208" height="52" viewBox="0 0 208 52" fill="none" xmlns="http://www.w3.org/2000/svg">
<g id="logo-text" clip-path="url(#clip0_2230_1816)">
<path id="Vector" d="M49.3954 1.79992C49.3954 1.19016 49.2398 0.908415 48.5838 0.958877C47.995 1.00513 47.4021 0.958877 46.8134 0.958877C45.7747 0.958877 45.7747 0.958877 45.7747 2.03541C45.7747 7.01439 45.7747 11.992 45.7747 16.9681C45.7747 17.1826 45.7747 17.3887 45.7747 17.6115C45.7747 17.7419 45.7747 17.8975 45.6443 17.9606C45.514 18.0236 45.3457 17.8891 45.2574 17.7629C44.7528 17.0733 44.2776 16.3626 43.752 15.6897C40.4971 11.4845 37.1372 7.39286 34.0169 3.10774C32.7848 1.42566 31.4938 0.626665 29.4332 0.925235C28.752 1.02616 28.5249 1.16493 28.5333 1.863C28.5627 5.37015 28.5333 8.87309 28.5333 12.376C28.5333 15.879 28.5333 19.4955 28.5333 23.0531C28.5333 23.6376 28.6973 23.8941 29.3113 23.8395C29.9266 23.7806 30.5462 23.7806 31.1616 23.8395C32.0026 23.9362 32.1792 23.5787 32.1708 22.7966C32.1414 17.8176 32.1708 12.8386 32.1708 7.86384C32.1708 7.61573 32.032 7.24567 32.3432 7.15316C32.6544 7.06064 32.7637 7.4307 32.9109 7.63255C35.2448 10.7024 37.6965 13.6754 39.9547 16.7999C41.4896 18.9278 43.1885 20.9379 44.7654 23.0363C44.9386 23.318 45.1895 23.5437 45.4879 23.6862C45.7863 23.8287 46.1195 23.8819 46.4475 23.8395C47.1472 23.7822 47.8504 23.7822 48.5501 23.8395C49.2187 23.8899 49.4206 23.6502 49.4206 22.9984C49.3842 15.9308 49.3757 8.86468 49.3954 1.79992Z" fill="#E7F0F5"/>
<path id="Vector_2" d="M77.7343 9.71828C77.7343 7.06899 77.7343 4.41971 77.7343 1.77042C77.7343 1.1859 77.5619 0.929378 76.9563 0.975636C76.2854 1.01349 75.6129 1.01349 74.942 0.975636C74.3365 0.946199 74.0589 1.12702 74.101 1.78724C74.1514 2.62828 74.101 3.49876 74.101 4.35663C74.101 8.58147 74.101 12.8091 74.101 17.0396C74.101 17.3634 74.2944 17.847 73.9202 17.9773C73.5459 18.1077 73.4534 17.6115 73.2641 17.3676C72.8436 16.8419 72.5114 16.2658 72.1035 15.7401C68.8445 11.5391 65.4803 7.43484 62.381 3.14132C61.1195 1.41718 59.8075 0.647629 57.7301 0.937789C57.0783 1.0303 56.889 1.1859 56.889 1.8377C56.9143 5.37008 56.889 8.90246 56.889 12.4348C56.889 15.9672 56.889 19.4996 56.889 23.032C56.889 23.6586 57.0657 23.9067 57.7301 23.873C58.3189 23.8184 58.9116 23.8184 59.5005 23.873C60.3037 23.9613 60.556 23.7048 60.5518 22.868C60.5097 17.9983 60.5518 13.1245 60.5518 8.25486C60.5518 8.0404 60.5518 7.83434 60.5518 7.61146C60.5518 7.38859 60.5097 7.26243 60.6905 7.19094C60.8714 7.11945 61.0059 7.33392 61.1111 7.45587C61.2019 7.55434 61.2849 7.65979 61.3592 7.77126C64.8705 12.3339 68.487 16.8167 71.8428 21.4887C73.1842 23.36 74.6098 24.2263 76.889 23.8983C77.5745 23.8015 77.7974 23.6796 77.7932 22.9773C77.7217 18.5492 77.7343 14.1169 77.7343 9.71828Z" fill="#E7F0F5"/>
<path id="Vector_3" d="M143.491 0.361816C136.708 0.361816 131.502 5.45433 131.502 12.0817C131.502 18.9699 136.574 24.0161 143.495 24.0161C149.606 24.1297 155.459 19.6974 155.497 12.1616C155.535 5.23987 150.098 0.366022 143.491 0.361816ZM143.521 20.7277C138.895 20.7529 135.228 16.943 135.241 12.0902C135.216 10.9907 135.411 9.8974 135.814 8.87442C136.218 7.85143 136.822 6.91939 137.591 6.13305C138.359 5.3467 139.278 4.7219 140.291 4.29533C141.305 3.86876 142.394 3.64902 143.493 3.64902C144.593 3.64902 145.682 3.86876 146.695 4.29533C147.709 4.7219 148.627 5.3467 149.396 6.13305C150.165 6.91939 150.769 7.85143 151.172 8.87442C151.576 9.8974 151.771 10.9907 151.746 12.0902C151.75 16.9135 148.134 20.7024 143.521 20.7277Z" fill="#E7F0F5"/>
<path id="Vector_4" d="M20.1523 14.9327C18.4702 11.1143 16.7881 7.30161 15.106 3.49448C14.7402 2.65344 14.614 1.5727 13.8907 1.11433C13.1674 0.655964 12.1119 1.03443 11.2078 0.95874C10.9422 0.9026 10.6652 0.95135 10.4348 1.09479C10.2044 1.23822 10.0383 1.46523 9.97146 1.72829C7.67121 7.04789 5.2448 12.317 3.00762 17.6661C2.23386 19.5121 1.40544 21.3414 0.577011 23.1623C0.333109 23.7005 0.434031 23.873 1.02697 23.8477C1.86801 23.8099 2.70905 23.8057 3.52486 23.8477C3.7392 23.8892 3.96127 23.8457 4.14412 23.7264C4.32696 23.6071 4.45626 23.4214 4.50468 23.2085C5.05136 21.8713 5.65691 20.5592 6.18677 19.2262C6.2404 19.0208 6.36459 18.8409 6.53758 18.7178C6.71057 18.5948 6.92133 18.5366 7.13294 18.5534C10.4102 18.5702 13.6833 18.5702 16.9521 18.5534C17.1507 18.5324 17.3506 18.5796 17.5188 18.6874C17.6869 18.7952 17.8134 18.957 17.8773 19.1463C18.2978 20.1303 18.8276 21.0765 19.1641 22.0899C19.6182 23.4524 20.3037 24.3019 21.889 23.8435C22.3474 23.8435 22.8058 23.8435 23.2599 23.8435C23.8318 23.8814 23.979 23.7258 23.7309 23.1623C22.524 20.4289 21.355 17.6745 20.1523 14.9327ZM15.3499 15.1051C14.2776 15.0841 13.2011 15.1051 12.1287 15.1051H8.83184C8.27255 15.1051 8.02024 14.9663 8.29778 14.3481C9.45001 11.7914 10.5728 9.22199 11.7208 6.66101C11.7923 6.50121 11.8133 6.24049 12.0278 6.24049C12.3222 6.20685 12.3306 6.51383 12.4063 6.66101C13.5627 9.21778 14.6939 11.7872 15.8545 14.3397C16.1195 14.9327 15.9513 15.1135 15.3499 15.1051Z" fill="#E7F0F5"/>
<path id="Vector_5" d="M102.158 14.9705C100.253 10.6391 98.3187 6.32036 96.4348 1.98058C96.1194 1.25307 95.7704 0.832551 94.9083 0.954503C94.3492 1.01487 93.7853 1.01487 93.2262 0.954503C92.9529 0.905305 92.6711 0.961149 92.4371 1.11086C92.2032 1.26057 92.0345 1.4931 91.9647 1.7619C89.6896 7.03524 87.2801 12.2749 85.0639 17.5525C84.2733 19.4532 83.4155 21.3372 82.5702 23.2001C82.3515 23.6879 82.4314 23.8687 82.9907 23.8435C83.8318 23.814 84.6728 23.8014 85.4886 23.8435C85.7113 23.8808 85.9398 23.8327 86.1285 23.7087C86.3172 23.5847 86.4522 23.394 86.5063 23.1749C87.0488 21.8376 87.6501 20.5214 88.1884 19.1925C88.235 18.9961 88.3508 18.8231 88.5144 18.705C88.6781 18.5869 88.8788 18.5315 89.0799 18.5491C92.3824 18.5659 95.6821 18.5659 98.979 18.5491C99.1646 18.5315 99.3508 18.576 99.5084 18.6757C99.666 18.7754 99.7859 18.9247 99.8494 19.1C100.27 20.084 100.796 21.026 101.14 22.0437C101.607 23.423 102.272 24.3439 103.916 23.8393C104.336 23.8393 104.778 23.8393 105.203 23.8393C105.808 23.8813 105.968 23.7215 105.703 23.1202C104.505 20.4162 103.348 17.6828 102.158 14.9705ZM97.402 15.1008C96.3044 15.1008 95.2027 15.1008 94.1051 15.1008C93.0076 15.1008 91.9058 15.1008 90.804 15.1008C90.2153 15.1008 90.0261 14.9158 90.291 14.3271C91.4432 11.7703 92.5702 9.20093 93.714 6.63995C93.7855 6.48436 93.8023 6.24046 94.0336 6.21943C94.2649 6.1984 94.2986 6.45913 94.3658 6.60631C95.5433 9.21354 96.7039 11.825 97.8772 14.4322C98.1169 14.9621 97.8982 15.105 97.402 15.1008Z" fill="#E7F0F5"/>
<path id="Vector_6" d="M122.848 1.45509C120.531 0.815895 118.167 1.03457 116.119 0.967282C114.362 0.967282 112.911 1.00092 111.464 0.967282C110.737 0.942051 110.497 1.15652 110.501 1.90925C110.535 6.80412 110.501 11.699 110.501 16.5897C110.501 18.7553 110.501 20.9252 110.501 23.0909C110.501 23.6881 110.686 23.9025 111.288 23.8647C111.957 23.8205 112.628 23.8205 113.298 23.8647C113.924 23.9109 114.139 23.7091 114.139 23.0573C114.101 21.3458 114.139 19.6342 114.118 17.9227C114.118 17.2961 114.324 17.0817 114.959 17.0817C116.296 17.1237 117.642 17.1321 118.979 17.0817C120.909 17.0102 122.793 16.741 124.542 15.7949C125.335 15.4017 126.036 14.8474 126.602 14.1674C127.167 13.4874 127.585 12.6968 127.827 11.8462C128.122 10.652 128.229 9.41895 128.142 8.19184C128.066 4.67208 126.246 2.39706 122.848 1.45509ZM124.299 10.1389C123.802 12.3003 122.562 13.36 120.329 13.5535C118.563 13.7049 116.796 13.6586 115.026 13.6839C114.378 13.6839 114.122 13.4862 114.13 12.8092C114.16 10.2398 114.151 7.6746 114.13 5.10521C114.13 4.50387 114.282 4.21371 114.95 4.26417C115.699 4.31463 116.452 4.26417 117.204 4.26417C118.731 4.26417 120.253 4.21791 121.733 4.71833C123.474 5.31127 124.37 6.47611 124.391 8.29277C124.437 8.90959 124.405 9.52967 124.299 10.1389Z" fill="#E7F0F5"/>
<path id="Vector_7" d="M204.833 12.5273C203.226 11.3288 201.342 10.8032 199.446 10.3154C198.217 10.0418 197.018 9.65175 195.863 9.15054C194.883 8.68796 194.202 7.98569 194.181 6.82085C194.147 5.13876 195.506 3.8772 197.44 3.77207C199.65 3.61866 201.85 4.19481 203.702 5.4121C204.181 5.72749 204.433 5.66441 204.723 5.20184C205.069 4.62962 205.456 4.08294 205.88 3.56601C206.347 3.01513 206.174 2.72497 205.615 2.41799C203.736 1.32159 201.638 0.655203 199.471 0.466769C197.024 0.248098 194.74 0.592925 192.684 2.06475C189.677 4.22623 189.555 9.34818 192.263 11.4886C193.643 12.582 195.257 13.1287 196.919 13.5912C198.408 13.9165 199.87 14.3551 201.292 14.9033C201.855 15.118 202.336 15.5044 202.668 16.0078C202.999 16.5112 203.163 17.1061 203.138 17.7081C203.138 18.9024 202.322 19.878 201.01 20.3406C199.801 20.7139 198.517 20.7704 197.28 20.5046C195.426 20.1608 193.696 19.334 192.263 18.1076C191.843 17.7796 191.616 17.7586 191.296 18.2002C190.873 18.7909 190.411 19.3528 189.913 19.8822C189.492 20.3028 189.526 20.5845 190.005 20.9588C192.493 22.9957 195.622 24.0848 198.836 24.0328C199.08 24.0328 199.32 24.0328 199.564 24.0328C204.282 23.9487 207.061 21.0891 206.885 16.4634C206.877 15.6921 206.687 14.9336 206.33 14.2496C205.974 13.5656 205.46 12.9755 204.833 12.5273Z" fill="#E7F0F5"/>
<path id="Vector_8" d="M174.055 20.3488C171.212 20.3867 168.369 20.3488 165.527 20.3488C164.824 20.3488 164.509 20.1554 164.543 19.3901C164.597 18.057 164.543 16.7155 164.543 15.3783C164.543 10.8619 164.543 6.34127 164.543 1.82067C164.543 1.17727 164.383 0.882906 163.701 0.937574C163.059 0.983777 162.414 0.983777 161.771 0.937574C161.086 0.887112 160.93 1.17307 160.93 1.82067C160.955 5.34884 160.93 8.87702 160.93 12.4094C160.93 15.9418 160.93 19.47 160.93 22.9981C160.93 23.3892 160.834 23.8392 161.485 23.8392C165.803 23.8392 170.121 23.8392 174.442 23.8392C174.862 23.8392 175.03 23.6836 175.026 23.2757C174.992 22.6341 174.992 21.9912 175.026 21.3497C175.119 20.5843 174.816 20.3362 174.055 20.3488Z" fill="#E7F0F5"/>
<path id="Vector_9" d="M182.713 0.958953C182.154 1.00521 181.586 0.958953 181.031 0.958953C179.963 0.958953 179.963 0.958953 179.963 2.00185C179.963 8.47507 179.963 14.9469 179.963 21.4173C179.963 22.0313 179.963 22.6494 179.963 23.2634C179.963 23.6839 180.114 23.8479 180.535 23.8353C181.149 23.8353 181.767 23.8353 182.385 23.8353C183.575 23.8353 183.58 23.8353 183.58 22.6873V12.4224C183.58 8.88999 183.58 5.36181 183.58 1.82943C183.584 1.17342 183.39 0.887464 182.713 0.958953Z" fill="#E7F0F5"/>
<path id="Vector_10" d="M89.328 36.3458C89.328 35.858 89.1598 35.6772 88.672 35.6898C87.8309 35.715 86.952 35.736 86.0984 35.6898C85.8624 35.6576 85.6226 35.7106 85.4222 35.8394C85.2218 35.9681 85.0739 36.164 85.005 36.3921C83.6762 39.1969 82.3221 41.985 80.968 44.7773C80.8292 45.059 80.7577 45.3912 80.4339 45.5805C80.2118 45.3904 80.0485 45.1409 79.963 44.8614C78.9285 42.7209 77.915 40.5678 76.8637 38.4316C76.4432 37.5485 76.2414 36.3668 75.4676 35.8664C74.6938 35.366 73.4827 35.7949 72.4777 35.6898C71.7039 35.6099 71.5357 35.9253 71.5399 36.6402C71.5694 41.1103 71.5399 45.5762 71.5399 50.0464C71.5399 51.8841 71.2876 51.5729 73.1001 51.6444C73.7981 51.6696 74.0252 51.472 74.0168 50.7487C73.9831 47.1911 74.0168 43.6334 74.0168 40.0758C74.0168 39.8109 73.9201 39.4997 74.1556 39.2768C74.2364 39.3084 74.3094 39.357 74.3697 39.4194C74.4299 39.4819 74.4759 39.5566 74.5046 39.6385C76.1446 42.9774 77.9234 46.2449 79.4499 49.6343C79.5124 49.8246 79.6408 49.9863 79.812 50.0904C79.9831 50.1944 80.1858 50.234 80.3835 50.202C80.804 50.202 81.1488 50.202 81.3633 49.71C82.8519 46.3963 84.5971 43.2045 86.2077 39.9455C86.3297 39.7016 86.3717 39.3736 86.7586 39.2768C86.8606 39.5447 86.8924 39.8342 86.8511 40.1179C86.8511 43.3811 86.8511 46.6444 86.8511 49.9076C86.8511 51.9009 86.4937 51.5897 88.6047 51.6233C89.1177 51.6233 89.3196 51.4762 89.3196 50.9421C89.3112 46.0781 89.314 41.2126 89.328 36.3458Z" fill="#E7F0F5"/>
<path id="Vector_11" d="M12.0236 46.2699C11.8007 45.9545 11.603 45.6938 12.1623 45.4919C14.8663 44.5121 15.3877 41.9848 14.9588 39.3818C14.8739 38.7396 14.6234 38.1305 14.2319 37.6144C13.8404 37.0983 13.3214 36.693 12.7258 36.4381C11.9615 36.1141 11.1514 35.9113 10.3247 35.8368C8.04963 35.5803 5.7662 35.7653 3.49118 35.677C2.75947 35.6517 2.59547 35.9083 2.59968 36.5979C2.62491 41.0639 2.59968 45.5298 2.59968 49.9957C2.59968 51.8923 2.2969 51.5727 4.28176 51.6316C4.87049 51.6316 5.08916 51.4676 5.07234 50.862C5.0345 49.5247 5.07234 48.1875 5.07234 46.8502C5.07234 46.2657 5.25316 46.0092 5.8503 46.0344C6.51986 46.0702 7.19084 46.0702 7.8604 46.0344C8.13524 45.9983 8.41463 46.0445 8.66316 46.1673C8.9117 46.2901 9.11821 46.4838 9.25653 46.7241C10.2279 48.1959 11.2498 49.6341 12.2464 51.0891C12.4315 51.3582 12.5955 51.6189 12.9908 51.6105C13.8318 51.6105 14.6981 51.6105 15.7578 51.6105C15.4718 51.19 15.3036 50.9713 15.1396 50.7316C14.0995 49.2458 13.0608 47.7586 12.0236 46.2699ZM10.2952 43.7089C8.7477 43.9823 7.18756 43.8393 5.63584 43.8687C5.21532 43.8687 5.07655 43.6627 5.07655 43.2716C5.07655 41.6904 5.07655 40.1135 5.07655 38.5323C5.07655 38.1118 5.26158 37.9646 5.66107 37.973C6.33391 37.973 7.00254 37.973 7.85199 37.973C8.5837 38.0277 9.49202 37.9015 10.4003 38.1118C11.9395 38.4608 12.5913 39.222 12.5871 40.7905C12.5829 42.4474 11.7965 43.4398 10.2952 43.7089Z" fill="#E7F0F5"/>
<path id="Vector_12" d="M133.933 35.3701C129.151 35.3701 125.522 38.8142 125.522 43.4021C125.522 47.7587 128.807 51.7915 133.836 51.7747C138.865 51.7578 142.078 47.8806 142.133 43.4525C142.192 38.9235 138.55 35.3701 133.933 35.3701ZM133.781 49.3398C133.025 49.3312 132.277 49.1722 131.582 48.872C130.887 48.5719 130.259 48.1367 129.734 47.5916C129.209 47.0465 128.797 46.4025 128.523 45.697C128.249 44.9915 128.118 44.2386 128.138 43.482C128.138 40.1178 130.556 37.6409 133.84 37.6409C137.125 37.6409 139.547 40.1641 139.543 43.4946C139.556 44.2586 139.417 45.0176 139.133 45.7271C138.849 46.4366 138.427 47.0823 137.89 47.6264C137.353 48.1704 136.714 48.6019 136.008 48.8954C135.303 49.1889 134.545 49.3386 133.781 49.3356V49.3398Z" fill="#E7F0F5"/>
<path id="Vector_13" d="M166.044 35.3701C161.33 35.3701 157.747 38.852 157.743 43.4315C157.725 44.5234 157.925 45.6079 158.332 46.6213C158.738 47.6348 159.343 48.5569 160.111 49.3336C160.878 50.1103 161.793 50.7259 162.802 51.1443C163.811 51.5628 164.893 51.7756 165.985 51.7705C170.951 51.7957 174.294 47.9437 174.332 43.4273C174.37 38.9109 170.737 35.3701 166.044 35.3701ZM166.044 49.3398C162.839 49.3398 160.333 46.7747 160.333 43.4525C160.333 40.1304 162.76 37.6241 166.048 37.6283C169.336 37.6325 171.746 40.1514 171.738 43.5156C171.748 44.2708 171.61 45.0207 171.33 45.7223C171.05 46.4238 170.634 47.0633 170.107 47.6039C169.58 48.1446 168.951 48.5759 168.256 48.8731C167.562 49.1702 166.816 49.3274 166.061 49.3356L166.044 49.3398Z" fill="#E7F0F5"/>
<path id="Vector_14" d="M33.1001 43.7428C33.1001 41.5771 33.1001 39.4072 33.1001 37.2415C33.1001 35.4501 33.3693 35.7486 31.5022 35.6856C30.8503 35.6856 30.6064 35.8496 30.6233 36.5266C30.6653 38.2886 30.6233 40.0548 30.6233 41.821C30.6233 42.3298 30.5181 42.6116 29.9126 42.6031C27.6586 42.5779 25.4046 42.6031 23.1506 42.6031C22.6291 42.6031 22.4441 42.4265 22.4525 41.9093C22.4735 40.3323 22.4525 38.7512 22.4525 37.1742C22.4525 35.4627 22.6712 35.7571 20.9513 35.6772C20.1523 35.6393 19.9715 35.9211 19.9757 36.6738C20.0093 41.1145 19.9757 45.5552 19.9967 49.9959C19.9967 51.8925 19.6939 51.5729 21.6788 51.6317C22.2717 51.6317 22.482 51.4677 22.4736 50.8622C22.4399 49.1507 22.4736 47.4349 22.4483 45.7234C22.4483 45.1052 22.6334 44.8824 23.2894 44.8824C25.4635 44.9118 27.6376 44.9076 29.8116 44.8824C30.4508 44.8824 30.6527 45.1095 30.6527 45.7234C30.6233 47.17 30.6527 48.6124 30.6527 50.059C30.6527 51.8798 30.413 51.556 32.2381 51.6317C32.9698 51.6612 33.1422 51.4047 33.1338 50.715C33.0749 48.4063 33.1001 46.0682 33.1001 43.7428Z" fill="#E7F0F5"/>
<path id="Vector_15" d="M48.5669 49.1253C46.3423 49.1799 44.1136 49.1252 41.8848 49.1589C41.1111 49.1589 40.7494 48.9823 40.8209 48.1328C40.8903 47.3058 40.8903 46.4745 40.8209 45.6475C40.7494 44.8065 41.069 44.5794 41.868 44.6004C43.7982 44.6425 45.7326 44.6004 47.6628 44.6004C48.2599 44.6004 48.5038 44.3902 48.4492 43.8057C48.4323 43.6182 48.4323 43.4296 48.4492 43.2422C48.5122 42.6324 48.2978 42.4011 47.6376 42.4011C45.6527 42.4432 43.6636 42.4011 41.6788 42.4306C41.0017 42.4306 40.7915 42.2119 40.8377 41.5559C40.8861 40.6748 40.8861 39.7918 40.8377 38.9108C40.7957 38.2127 41.0396 37.9646 41.746 37.9772C43.815 38.0109 45.8798 37.9772 47.9487 37.9772C49.6056 37.9772 49.3407 38.1412 49.3911 36.5012C49.3911 35.9041 49.2776 35.6602 48.5963 35.6602C45.4593 35.6938 42.318 35.6896 39.1767 35.6602C38.6048 35.6602 38.3693 35.7947 38.3735 36.4171C38.3959 41.2363 38.3959 46.0526 38.3735 50.8662C38.3735 51.4171 38.5375 51.6231 39.1094 51.6105C40.7158 51.5811 42.3264 51.6105 43.937 51.6105C45.5476 51.6105 47.1582 51.5853 48.7688 51.6105C49.4037 51.6105 49.6687 51.4171 49.6098 50.7905C49.5845 50.5768 49.5845 50.3608 49.6098 50.1471C49.7107 49.3734 49.3953 49.1084 48.5669 49.1253Z" fill="#E7F0F5"/>
<path id="Vector_16" d="M107.642 48.5533C105.96 44.7181 104.202 40.904 102.596 37.0352C102.15 35.9713 101.616 35.5676 100.472 35.6643C99.7991 35.7231 99.4248 35.8703 99.1515 36.5053C97.2381 41.0301 95.1313 45.4708 93.2642 50.0209C92.6082 51.6273 92.5871 51.581 94.3239 51.6315C94.6018 51.6794 94.8876 51.6189 95.1223 51.4625C95.357 51.306 95.5228 51.0655 95.5854 50.7904C95.8798 49.9494 96.2457 49.1588 96.5568 48.3346C96.6049 48.1535 96.7161 47.9956 96.8703 47.8892C97.0245 47.7828 97.2116 47.735 97.3979 47.7543C99.5986 47.7711 101.798 47.7711 103.996 47.7543C104.183 47.738 104.37 47.788 104.523 47.8957C104.677 48.0033 104.788 48.1617 104.837 48.343C105.11 49.0369 105.447 49.7097 105.678 50.4162C105.977 51.3203 106.439 51.8838 107.36 51.5978C107.747 51.5978 107.991 51.5768 108.231 51.5978C108.903 51.6735 108.929 51.4254 108.672 50.8871C108.26 50.147 107.987 49.3354 107.642 48.5533ZM102.907 45.5003C102.158 45.5003 101.405 45.5003 100.653 45.5003C99.9 45.5003 99.2061 45.5003 98.4828 45.5003C98.0623 45.5003 97.8773 45.3657 98.0623 44.9368C98.8333 43.2042 99.6056 41.4703 100.379 39.7349C100.442 39.5961 100.48 39.4027 100.682 39.4069C100.884 39.4111 100.922 39.6046 100.981 39.7391C101.759 41.4717 102.52 43.2084 103.302 44.9368C103.5 45.3825 103.327 45.5087 102.907 45.5003Z" fill="#E7F0F5"/>
<path id="Vector_17" d="M191.292 46.6445C191.292 46.2954 191.292 45.9464 191.292 45.6016C191.246 43.6041 191.712 43.9195 189.463 43.8774C188.954 43.8774 188.815 44.0835 188.823 44.5503C188.844 45.5679 188.823 46.5856 188.823 47.599C188.844 47.7975 188.798 47.997 188.693 48.1666C188.588 48.3363 188.43 48.4664 188.243 48.5368C187.07 49.0786 185.775 49.302 184.488 49.1844C183.585 49.1655 182.703 48.9077 181.931 48.4371C181.16 47.9666 180.528 47.3002 180.098 46.5057C179.469 45.3923 179.212 44.1074 179.363 42.8378C179.514 41.5681 180.066 40.3797 180.939 39.4451C182.671 37.6789 185.88 37.2458 188.188 38.4611C189.286 39.0372 189.286 39.0372 190.014 37.9859C190.039 37.9379 190.07 37.8928 190.106 37.8514C190.527 37.4308 190.388 37.1407 189.938 36.8379C188.986 36.1816 187.91 35.7267 186.776 35.5011C185.643 35.2754 184.475 35.2839 183.344 35.5259C180.009 36.1819 177.827 38.1878 176.994 41.4762C176.153 44.8783 177.162 47.8177 179.795 50.0465C182.511 52.3425 187.179 52.3551 190.127 50.3577C190.926 49.8152 191.389 49.1844 191.275 48.1667C191.249 47.6595 191.255 47.151 191.292 46.6445Z" fill="#E7F0F5"/>
<path id="Vector_18" d="M66.7713 41.1184C66.7713 39.6298 66.7713 38.4523 66.7713 37.2791C66.7502 35.4414 67.0614 35.7442 65.1312 35.6811C64.5089 35.6811 64.2902 35.8409 64.2902 36.4927C64.3238 39.0579 64.2902 41.6272 64.2902 44.1924C64.292 44.8063 64.2342 45.4189 64.1178 46.0217C63.7309 47.9771 62.2843 49.2807 60.4298 49.3396C58.302 49.4069 56.8175 48.3304 56.275 46.3034C56.0709 45.5281 55.9705 44.7292 55.9765 43.9275C55.9765 41.7366 55.9765 39.5415 55.9765 37.3505C55.9765 35.4161 56.254 35.7442 54.3238 35.6685C53.7015 35.6685 53.4828 35.8198 53.4828 36.4717C53.5164 39.2555 53.4828 42.0352 53.4828 44.8148C53.4828 46.6903 54.0042 48.4481 55.2952 49.8232C57.0909 51.7198 59.3995 52.1319 61.8806 51.602C64.3617 51.0722 65.7326 49.4111 66.397 47.094C67.0278 45.0419 66.6745 42.9098 66.7713 41.1184Z" fill="#E7F0F5"/>
<path id="Vector_19" d="M207.524 35.8199C207.339 35.4667 206.582 35.7737 206.086 35.6895C205.333 35.5676 204.934 35.9208 204.572 36.5306C203.436 38.5028 202.23 40.4288 201.069 42.3843C200.762 42.9015 200.56 42.9015 200.253 42.3843C199.303 40.7737 198.327 39.1757 197.36 37.5693C196.178 35.6054 196.183 35.6012 193.874 35.6853C193.775 35.7041 193.676 35.728 193.579 35.7568C194.757 37.666 195.749 39.613 197.057 41.3245C198.958 43.7606 199.825 46.8463 199.471 49.9158C199.303 51.8838 199.143 51.5558 201.153 51.6189C201.746 51.6189 201.956 51.4507 201.944 50.8451C201.906 49.2934 201.944 47.7417 201.918 46.19C201.892 45.5251 202.076 44.8687 202.444 44.3144C203.95 41.9427 205.426 39.5499 206.893 37.1656C207.141 36.7324 207.751 36.2488 207.524 35.8199Z" fill="#E7F0F5"/>
<path id="Vector_20" d="M122.116 35.6853C118.874 35.7105 115.627 35.6853 112.381 35.6853C110.669 35.6853 110.901 35.3909 110.854 37.2286C110.854 37.7795 111.019 37.9898 111.586 37.9729C112.688 37.9393 113.79 37.9729 114.887 37.9729C115.526 37.9477 115.728 38.1664 115.728 38.814C115.695 40.8199 115.728 42.8258 115.728 44.8316C115.728 46.8375 115.758 48.7887 115.728 50.7694C115.728 51.4885 115.951 51.7534 116.645 51.6483C116.785 51.6369 116.926 51.6369 117.066 51.6483C118.23 51.6483 118.23 51.6483 118.23 50.4708C118.23 46.6189 118.23 42.7711 118.23 38.9191C118.23 38.322 118.31 37.9435 119.071 37.994C119.913 38.0486 120.787 37.994 121.645 37.994C123.243 37.994 123.05 38.2505 123.104 36.5348C123.041 35.7904 122.747 35.6811 122.116 35.6853Z" fill="#E7F0F5"/>
<path id="Vector_21" d="M154.765 49.1002C152.97 49.1338 151.174 49.1002 149.374 49.1002C148.651 49.1002 148.411 48.8773 148.42 48.133C148.457 44.4955 148.445 40.8622 148.42 37.2247C148.42 35.4374 148.659 35.7318 146.906 35.6603C146.182 35.6351 145.926 35.8285 145.943 36.5897C145.993 38.9446 145.943 41.2953 145.943 43.6502C145.943 46.0052 145.943 48.4105 145.943 50.7991C145.943 51.4215 146.107 51.6401 146.784 51.6401C149.223 51.6023 151.662 51.6401 154.105 51.6191C155.926 51.6191 155.644 51.9345 155.711 49.9917C155.733 49.2474 155.434 49.0876 154.765 49.1002Z" fill="#E7F0F5"/>
</g>
<defs>
<clipPath id="clip0_2230_1816">
<rect width="208" height="52" fill="white"/>
</clipPath>
</defs>
</svg>
