<svg xmlns="http://www.w3.org/2000/svg" viewBox="0 0 120 139.52"><g id="Layer_2" data-name="Layer 2"><g id="Layer_1-2" data-name="Layer 1"><path d="M59.06,139.47c-4,.14-8.73,0-13.48-.24a126.29,126.29,0,0,1-24.87-3c-4.77-1.16-9.44-2.62-13.52-5.49C1,126.35-1.1,120.5.53,113.12c1-4.56,3.69-8,7.1-10.9,4.6-4,9.93-6.85,15.2-9.81a112.51,112.51,0,0,1,15.3-7.14,11,11,0,0,0,4.64-3,7.36,7.36,0,0,0,1.12-8.15,20,20,0,0,0-3.06-4.63A58.89,58.89,0,0,1,29.35,46.83a47.77,47.77,0,0,1-.28-23.25C31.59,13.65,37.37,6.32,47,2.42A36.13,36.13,0,0,1,63.5.13,31.26,31.26,0,0,1,78.62,5.06a28.64,28.64,0,0,1,11.47,15,44.93,44.93,0,0,1,1,25.63,54.15,54.15,0,0,1-7.51,17.7c-1.94,2.88-4.33,5.45-6,8.49a12.72,12.72,0,0,0-1.8,6.56,6.43,6.43,0,0,0,2.63,5.23,33.55,33.55,0,0,0,8.83,4.43c8.29,3.16,16.36,6.74,23.44,12.19,3.5,2.7,6.59,5.82,8,10.07,1.69,4.94,2,10-.2,14.92-1.44,3.17-4.16,5.17-7.14,6.79A51,51,0,0,1,96,137a148.88,148.88,0,0,1-20.21,2.1C70.44,139.36,65.15,139.5,59.06,139.47Zm19.62-24.89h0c0,.92,0,1.83,0,2.74,0,1.21.31,1.57,1.54,1.58,1.78,0,3.57,0,5.36,0,.78,0,1.1.26,1.08,1,0,1.79,0,3.58,0,5.37,0,1.24.26,1.49,1.48,1.5h5.46c1.26,0,1.63-.36,1.65-1.63,0-1.62,0-3.24,0-4.86,0-1.41,0-1.42,1.38-1.42,1.69,0,3.38,0,5.06,0,1,0,1.45-.39,1.46-1.38,0-2,0-3.91,0-5.87,0-.91-.45-1.35-1.39-1.34-1.82,0-3.64,0-5.46,0-.78,0-1.09-.25-1.07-1,0-1.76,0-3.51,0-5.27,0-1.27-.39-1.63-1.63-1.64-1.82,0-3.65,0-5.47,0-1.24,0-1.48.24-1.49,1.49,0,1.65,0,3.31,0,5,0,1.49,0,1.49-1.44,1.5-1.72,0-3.44,0-5.16,0-.94,0-1.37.4-1.35,1.34S78.68,113.61,78.68,114.58Z"/></g></g></svg>