<svg width="16" height="16" viewBox="0 0 16 16" fill="white" xmlns="http://www.w3.org/2000/svg">
<g id="Location-icons" clip-path="url(#clip0_2116_6106)">
<path id="Vector" d="M11.2157 15.3331C10.6057 15.3331 9.74881 15.1124 8.46568 14.3956C6.90537 13.5206 5.69849 12.7127 4.14662 11.1649C2.65037 9.66962 1.92224 8.70149 0.903181 6.84712C-0.248069 4.75337 -0.0518188 3.65587 0.167556 3.1868C0.428806 2.62618 0.814431 2.29087 1.31287 1.95805C1.59598 1.77256 1.89558 1.61356 2.20787 1.48305C2.23912 1.46962 2.26818 1.4568 2.29412 1.44524C2.44881 1.37555 2.68318 1.27024 2.98006 1.38274C3.17818 1.45712 3.35506 1.6093 3.63193 1.88274C4.19974 2.44274 4.97568 3.68993 5.26193 4.30243C5.45412 4.71524 5.58131 4.98774 5.58162 5.29337C5.58162 5.65118 5.40162 5.92712 5.18318 6.22493C5.14224 6.28087 5.10162 6.3343 5.06224 6.38618C4.82443 6.69868 4.77224 6.78899 4.80662 6.95024C4.87631 7.2743 5.39599 8.23899 6.25006 9.09118C7.10412 9.94337 8.04099 10.4302 8.36631 10.4996C8.53443 10.5356 8.62662 10.4812 8.94912 10.2349C8.99537 10.1996 9.04287 10.1631 9.09256 10.1265C9.42568 9.87868 9.68881 9.70337 10.0382 9.70337H10.0401C10.3441 9.70337 10.6044 9.83524 11.0357 10.0527C11.5982 10.3365 12.8829 11.1024 13.4463 11.6709C13.7204 11.9471 13.8732 12.1234 13.9479 12.3212C14.0604 12.619 13.9544 12.8524 13.8854 13.0087C13.8738 13.0346 13.861 13.0631 13.8476 13.0946C13.716 13.4063 13.5561 13.7053 13.3697 13.9877C13.0376 14.4846 12.701 14.8693 12.1391 15.1309C11.8506 15.2674 11.5348 15.3365 11.2157 15.3331Z" fill="#E7F0F5"/>
</g>
<defs>
<clipPath id="clip0_2116_6106">
<rect width="16" height="16" fill="white"/>
</clipPath>
</defs>
</svg>
