<svg xmlns="http://www.w3.org/2000/svg" viewBox="0 0 470.43 453.64"><defs><style>.cls-1{fill:#304658;}.cls-2{fill:#39beac;}</style></defs><g id="Layer_2" data-name="Layer 2"><g id="Layer_1-2" data-name="Layer 1"><path class="cls-1" d="M215.67,215.36c-.53-7.82-.89-15.65-2.09-23.4a9.51,9.51,0,0,0-1.48-3.87c-2.27-3.42-4.6-6.8-6.72-10.31-3.1-5.14-4.36-10.69-2.95-16.65,2.84-11.93,14.24-18.24,26.22-14.57a31.26,31.26,0,0,1,10.91,6.11c8.84,7.39,15.56,16.26,19.17,27.35,1.22,3.74,1.37,3.68,4.83,1.55Q274.28,175,285,168.39c14.83-9.09,30.67-.55,31.28,16.89a4.1,4.1,0,0,0,1.29,2.91,20.92,20.92,0,0,1,6,15.5,4.27,4.27,0,0,0,1.27,3.2,20.87,20.87,0,0,1,5.43,16.5,4.14,4.14,0,0,0,.94,3.3c8.3,10.71,5.9,23.9-5.62,31-15.95,9.85-32,19.6-47.85,29.54a19.58,19.58,0,0,1-12.46,3.25c-3.73-.34-5.94,2.32-8.73,3.84-1.06.57-.15,1.29.19,1.84,1.7,2.69,3.45,5.33,5.15,8,2.41,3.82,1.71,6.84-2.21,9.14-10.7,6.27-21.44,12.48-32.13,18.77a6.22,6.22,0,0,1-7.29-.24q-46.92-31.78-93.85-63.52c-4.51-3-4.31-7.73.44-10.47q25.56-14.73,51.15-29.42c6.68-3.85,13.3-7.78,20-11.6,3.95-2.26,6.49-1.58,9,2.22l.61.93c2.69,4.18,2.66,4.13,6.89,1.4a2.64,2.64,0,0,0,1.44-3C215.73,217.42,215.74,216.38,215.67,215.36Zm85.53-22.64c4.6-5.08,5.05-9.7,1.66-13.89-3.05-3.78-7-3.89-12.74-.36l-21.45,13.19c-3.34,2.05-6.65,4.14-10,6.13-3.59,2.13-5.13,1.5-6.46-2.34-1.63-4.66-3.46-9.26-5-13.95-2.63-8-8-14-14.06-19.51a22,22,0,0,0-6.82-4.31c-4.08-1.56-8.38-1-10.67,1.69-2.86,3.31-3.11,7.06-1.42,11,1.15,2.68,3,4.92,4.56,7.36,2.16,3.46,4.94,6.57,5.64,10.82,1.93,11.63,2.36,23.38,3,35.11a5.07,5.07,0,0,1-2.71,4.6c-1.73,1.11-3.5,2.15-5.23,3.26-3.8,2.44-3.45,1.57-1.22,5q14.67,22.83,29.41,45.63c2,3.12,2.08,3.22,5.06,1.16,4.1-2.82,8.32-4.91,13.53-4a7.29,7.29,0,0,0,5-1.34q24.28-15,48.6-30c3.94-2.43,5.53-5.65,4.79-9.54a10.32,10.32,0,0,0-8.17-8.23c-.75-.16-1.74.27-2.32-.93,4.18-2.71,6.13-6.46,4.35-11.4-1.68-4.68-5.42-6.74-10.76-7,4-3.13,5.5-6.65,4.06-11C310.19,195.08,306.45,193,301.2,192.72ZM139.64,263.48c.63.53,1,.91,1.46,1.22q40.77,27.58,81.52,55.21a2.75,2.75,0,0,0,3.48,0c7-4.12,14-8.29,21-12.21,2.21-1.23,2.31-2.06,1-4.12q-23.46-36.12-46.69-72.4c-1.38-2.16-2.29-2.09-4.29-.93-15.93,9.31-31.94,18.5-47.92,27.73Z"/><path class="cls-1" d="M106.41,403.13H363.53c.08-1.15-.77-1.72-1.28-2.44A19.75,19.75,0,0,1,375,369.39a4,4,0,0,0,3.14-1.82c5.45-8.33,15.11-11.35,24-7.67a20.5,20.5,0,0,1,11.94,22.68c-1.23,6.12-2.45,12.25-3.86,18.34-.48,2,.15,2.36,1.95,2.29,3.08-.11,6.16-.06,9.24,0,4.21.05,7,2.32,7,5.63s-2.82,5.59-7,5.59q-63.4,0-126.81,0H49.66c-.56,0-1.12,0-1.67,0-3.39-.24-5.93-2.6-6-5.52s2.53-5.53,6.1-5.66,6.91-.14,10.36,0c1.88.07,2.14-.5,1.74-2.24-1.4-6.18-2.85-12.37-3.88-18.62-1.31-8,1.16-14.86,7.6-19.87,6-4.68,12.76-5.35,19.8-2.4a18.28,18.28,0,0,1,8.52,7.41,3.42,3.42,0,0,0,2.53,1.81c16.21,3,22.54,19.73,12.39,32.64C107,402.22,106.8,402.52,106.41,403.13ZM67.26,379.86c1.41,6.76,3,14.33,4.59,21.9.22,1.08,1,.88,1.75.7,2.08-.51,4.17-1,6.26-1.49,4.63-1.09,9.28-2.09,13.87-3.3a9.17,9.17,0,0,0,6.93-10.37c-1-4.82-4.77-7.28-10.26-6.61-3.22.39-5.42-1.09-6.5-4.39-1.57-4.77-5.1-7.26-9.35-6.58S67.19,374.38,67.26,379.86Zm335.93-.26c0-5.35-3.17-9.26-7.43-9.89s-7.69,1.87-9.18,6.43c-1.2,3.7-3.3,5-7.19,4.41a8.23,8.23,0,0,0-3.05,0,8.43,8.43,0,0,0-6.69,7.93,9.11,9.11,0,0,0,6.84,9.12c6.67,1.72,13.41,3.17,20.09,4.83,1.52.38,1.9-.08,2.16-1.5.66-3.64,1.55-7.24,2.31-10.86S402.57,382.63,403.19,379.6Z"/><path class="cls-2" d="M235.39,425.58h53.17c.74,0,1.49,0,2.24,0,3.63.12,6,2.35,6,5.62s-2.39,5.59-6,5.61c-9.33.05-18.65,0-28,0-4.76,0-9.52.09-14.27-.06-2.59-.08-1.9,1.62-2,3s-.22,2.71,2,2.67c7.36-.12,14.73-.06,22.1,0,4.09,0,6.55,2.17,6.53,5.65s-2.51,5.58-6.62,5.58q-34,0-68,0c-4.08,0-6.59-2.18-6.59-5.62s2.48-5.6,6.59-5.61c6.34,0,12.69-.12,19,.05,2.6.08,2.17-1.44,2.27-3,.11-1.78-.19-2.67-2.35-2.66-13.43.1-26.86.06-40.3.06a23.31,23.31,0,0,1-2.51,0,5.6,5.6,0,0,1-5.13-5.65,5.44,5.44,0,0,1,5.25-5.5c3.63-.16,7.28-.06,10.91-.06Z"/><path class="cls-1" d="M117.63,79.56c-.61,5.84-2.36,12.81-3.57,19.87-.6,3.49-1.21,7-2,10.42a9.73,9.73,0,0,1-11.55,7.56c-8.88-1.68-17.75-3.41-26.59-5.29C63,109.8,55.71,100.65,56,89.88S63.89,70.74,75,69a3.1,3.1,0,0,0,2.43-1.88c5.26-9,15-13,24.59-10.33C111.29,59.41,117.64,68.13,117.63,79.56Zm-38.69.59c-5.87-.46-10.5,3-11.54,8.63A10.59,10.59,0,0,0,75.65,101c7.91,1.79,15.9,3.21,23.84,4.86,1.45.3,2-.16,2.23-1.56.46-2.85,1-5.68,1.57-8.52,1-5.23,2.08-10.43,2.95-15.67a10.87,10.87,0,0,0-8-12.63c-5.32-1.17-10.35,2.15-12,7.93C85.07,79.29,83.27,80.48,78.94,80.15Z"/><path class="cls-1" d="M352.86,78.17A21.86,21.86,0,0,1,368.5,56.75c9.59-2.67,19.35,1.43,24.54,10.42A3.35,3.35,0,0,0,395.8,69a21.6,21.6,0,0,1,18.62,20.91A21.92,21.92,0,0,1,397.07,112c-9,1.93-18.07,3.71-27.13,5.44-5.1,1-10.25-1.91-11.31-6.84-2.16-10.11-3.88-20.31-5.76-30.48A11.53,11.53,0,0,1,352.86,78.17ZM364,79.28c1.47,7.72,3.17,16.6,4.81,25.49.27,1.44,1.13,1.21,2,1,8-1.58,15.94-3,23.85-4.82A10.59,10.59,0,0,0,403,88.82c-1-5.74-5.67-9.13-11.79-8.64-4,.31-5.92-1-7-4.78-1.56-5.48-6-8.74-11.14-8.12S364.1,72.52,364,79.28Z"/><path class="cls-2" d="M294,127.56a6.31,6.31,0,0,1-.76,2.95c-3.52,7.91-7,15.83-10.6,23.72-1.64,3.63-4.83,4.94-7.92,3.43a5.42,5.42,0,0,1-2.72-7.09q5.57-13,11.44-25.78a5.3,5.3,0,0,1,6.35-2.79A5.57,5.57,0,0,1,294,127.56Z"/><path class="cls-2" d="M151.15,436.83c-3.64,0-7.28,0-10.91,0s-5.87-2.27-5.82-5.68,2.2-5.51,5.68-5.53q11.06-.08,22.1,0c3.62,0,5.86,2.27,5.82,5.69s-2.25,5.5-6,5.53S154.78,436.83,151.15,436.83Z"/><path class="cls-2" d="M319.5,425.59c3.63,0,7.27,0,10.91,0a5.61,5.61,0,1,1,0,11.21q-11.19.06-22.38,0a5.61,5.61,0,1,1,0-11.21C311.85,425.54,315.68,425.59,319.5,425.59Z"/><path class="cls-2" d="M246.4,126.89c.06-3.54,1.7-5.77,4.14-6.32,2.61-.6,5.16,0,6.21,2.51a127,127,0,0,1,6.38,19.28c.63,2.62-1,4.65-3.51,5.69-2.3,1-5.35.34-6.42-1.88C250.08,139.72,248.46,132.73,246.4,126.89Z"/><path class="cls-1" d="M443.86,414.41c-1.58,0-3.16.1-4.73,0a5.51,5.51,0,0,1-5.12-5.59,5.38,5.38,0,0,1,4.89-5.5,77.36,77.36,0,0,1,9.75,0,5.39,5.39,0,0,1,5,5.69,5.52,5.52,0,0,1-5.3,5.42C446.84,414.48,445.35,414.41,443.86,414.41Z"/><path class="cls-1" d="M26.52,414.4c-1.48,0-3,.09-4.46,0a5.52,5.52,0,0,1-5.25-5.47,5.4,5.4,0,0,1,5-5.66,88,88,0,0,1,9.47,0,5.46,5.46,0,0,1,5.13,5.58A5.55,5.55,0,0,1,31,414.4c-1.48.08-3,0-4.46,0Z"/><path class="cls-1" d="M199.71,8.46A8.44,8.44,0,1,1,191.46,0,8.43,8.43,0,0,1,199.71,8.46Zm-4.28-.13a4.16,4.16,0,1,0-8.31.3,4.16,4.16,0,0,0,8.31-.3Z"/><path class="cls-2" d="M23.74,107.81c.69,1,1.34,2,2.1,2.92s1.22,1.57-.2,2.36c-1.24.68-1.79.43-2.23-.86s-1.1-2.55-1.76-4.06c-1.24,1.27-1.6,2.8-2.21,4.17-.44,1-.85,1.6-2.06.82-1-.67-1.15-1.32-.36-2.21a3.76,3.76,0,0,0,.32-.46c.58-.91,2.11-1.66,1.61-2.7-.64-1.33-2.15-.29-3.26-.27s-2,.17-2-1.44,1.18-1.29,2.15-1.24c1.19.06,2.34.65,3.61.28-.14-1.44-1.4-2.15-2.06-3.23-.37-.6-1.3-1.13-.87-1.87a2.84,2.84,0,0,1,1.82-1.14c1-.17,1,.91,1.29,1.52.59,1.15,1.12,2.33,1.92,4,.82-1.81,1.48-3.16,2-4.55.47-1.18,1.1-1.23,2.14-.66,1.26.69.9,1.32.21,2.16-.92,1.12-1.74,2.32-2.67,3.59,1.83.72,3.22-.12,4.66-.2,1.1-.05,1.52.3,1.52,1.39s-.42,1.52-1.51,1.4-2.41-.18-3.62-.26l-.69-.1Z"/><path class="cls-2" d="M438.9,86c-1.22-1.64-2-2.68-2.76-3.69-.6-.76-1.26-1.4.06-2.19,1.16-.7,1.81-.56,2.3.74s1.14,2.52,1.76,3.88c1.19-1.11,1.38-2.46,2-3.58.46-.87.58-2.1,2.11-1.23s.69,1.75.05,2.67-1.67,1.73-1.88,3.06c1.24.46,2.4,0,3.57-.08.69,0,1.58-.63,1.95.36A2.67,2.67,0,0,1,448,87.8c-.44.87-1.32.33-2,.27-1.1-.08-2.2-.2-3.49-.32.22,1.73,1.42,2.57,2.26,3.6.68.85,1,1.45-.21,2.16s-1.78.57-2.29-.76A10.52,10.52,0,0,0,440.41,89c-1.18,1.11-1.48,2.62-2.1,3.94-.55,1.16-1.13,1.21-2.16.6s-.81-1.23-.2-2c.87-1.07,1.69-2.17,2.77-3.57a11,11,0,0,0-4.37.16c-1.11.2-1.53-.22-1.51-1.33s.27-1.59,1.45-1.4S436.86,85.74,438.9,86Z"/><path class="cls-2" d="M308.47,106.36a5.82,5.82,0,0,1-5.57,5.57,5.72,5.72,0,1,1-.35-11.43A6,6,0,0,1,308.47,106.36Z"/><path class="cls-2" d="M188.87,102.8A5.79,5.79,0,0,1,183.28,97a5.89,5.89,0,0,1,5.91-5.54,5.76,5.76,0,0,1,5.58,5.82A5.86,5.86,0,0,1,188.87,102.8Z"/><path class="cls-2" d="M380.72,194.58a5.81,5.81,0,0,1-5.68,5.74,6,6,0,0,1-5.7-5.79,5.69,5.69,0,1,1,11.38.05Z"/><path class="cls-2" d="M276,376.57a6,6,0,0,1-5.8,5.7,5.73,5.73,0,0,1-5.7-5.71,5.75,5.75,0,0,1,11.5,0Z"/><path class="cls-2" d="M178.26,363.53a5.84,5.84,0,0,1,5.74,5.69,5.73,5.73,0,0,1-11.45,0A5.66,5.66,0,0,1,178.26,363.53Z"/><path class="cls-2" d="M128.23,327.31a5.74,5.74,0,0,1-5.62,5.77,6,6,0,0,1-5.77-5.72,5.79,5.79,0,0,1,5.65-5.76A5.89,5.89,0,0,1,128.23,327.31Z"/><path class="cls-2" d="M331.73,338.35a5.76,5.76,0,0,1,5.82,5.59,6,6,0,0,1-5.64,5.84,5.83,5.83,0,0,1-5.84-5.6A6,6,0,0,1,331.73,338.35Z"/><path class="cls-2" d="M147.58,124.61A5.72,5.72,0,0,1,142,118.8a5.86,5.86,0,0,1,5.84-5.61,5.69,5.69,0,0,1,5.56,5.8A5.86,5.86,0,0,1,147.58,124.61Z"/><path class="cls-2" d="M264.17,91.63a5.75,5.75,0,1,1-5.58-5.85A5.8,5.8,0,0,1,264.17,91.63Z"/><path class="cls-2" d="M95.31,241.22a5.54,5.54,0,0,1-5.63,5.67,5.75,5.75,0,0,1-5.62-5.78,5.91,5.91,0,0,1,5.73-5.73A5.65,5.65,0,0,1,95.31,241.22Z"/><path class="cls-2" d="M211.78,97.17a5.68,5.68,0,1,1,5.72-5.69A5.77,5.77,0,0,1,211.78,97.17Z"/><path class="cls-2" d="M318.75,358.09a5.65,5.65,0,1,1-11.3.17,5.91,5.91,0,0,1,5.62-5.82A5.59,5.59,0,0,1,318.75,358.09Z"/><path class="cls-2" d="M144.47,344.25a5.65,5.65,0,0,1-5.69,5.67,6,6,0,0,1-5.73-5.74,5.82,5.82,0,0,1,5.74-5.7A5.9,5.9,0,0,1,144.47,344.25Z"/><path class="cls-2" d="M348,332.85a5.76,5.76,0,0,1-5.67-5.73,5.91,5.91,0,0,1,5.79-5.65,5.71,5.71,0,0,1,5.67,5.72A5.86,5.86,0,0,1,348,332.85Z"/><path class="cls-2" d="M367.05,307.71a5.85,5.85,0,0,1-5.56,5.87,5.64,5.64,0,0,1-5.81-5.54,5.69,5.69,0,1,1,11.37-.33Z"/><path class="cls-2" d="M130.24,140.08a5.56,5.56,0,0,1-5.77-5.55,5.82,5.82,0,0,1,5.67-5.74,5.62,5.62,0,0,1,5.78,5.57A5.82,5.82,0,0,1,130.24,140.08Z"/><path class="cls-2" d="M157.36,352.62a5.91,5.91,0,0,1,5.88,5.56,5.69,5.69,0,0,1-5.58,5.79,5.77,5.77,0,0,1-5.84-5.56A5.61,5.61,0,0,1,157.36,352.62Z"/><path class="cls-2" d="M366.49,167a5.84,5.84,0,0,1,5.87,5.55,5.71,5.71,0,0,1-5.47,5.89,5.8,5.8,0,0,1-5.85-5.56A5.62,5.62,0,0,1,366.49,167Z"/><path class="cls-2" d="M223.88,385.9c-3.51.06-6-2.25-5.95-5.58a5.6,5.6,0,0,1,5.7-5.62,5.75,5.75,0,0,1,5.73,5.66A5.59,5.59,0,0,1,223.88,385.9Z"/><path class="cls-2" d="M206.14,376.58a5.59,5.59,0,0,1-5.59,5.74,5.7,5.7,0,1,1,5.59-5.74Z"/><path class="cls-2" d="M235.1,95.22A5.62,5.62,0,1,1,235.19,84a5.62,5.62,0,1,1-.09,11.23Z"/><path class="cls-2" d="M286.83,97.06a5.55,5.55,0,0,1-5.65,5.64,5.68,5.68,0,0,1-5.67-5.7,5.54,5.54,0,0,1,5.67-5.63A5.62,5.62,0,0,1,286.83,97.06Z"/><path class="cls-2" d="M121,152.61a5.83,5.83,0,0,1-5.69,5.73,5.63,5.63,0,0,1-5.57-5.77,5.82,5.82,0,0,1,5.69-5.72A5.57,5.57,0,0,1,121,152.61Z"/><path class="cls-2" d="M109.26,172.79a5.69,5.69,0,0,1-5.57,5.79A5.55,5.55,0,0,1,98,173a5.79,5.79,0,0,1,5.58-5.82A5.62,5.62,0,0,1,109.26,172.79Z"/><path class="cls-2" d="M85.07,217.94a5.61,5.61,0,1,1,11.22-.36,5.54,5.54,0,0,1-5.73,5.85A5.47,5.47,0,0,1,85.07,217.94Z"/><path class="cls-2" d="M86.89,264.13a5.66,5.66,0,1,1,5.39,6A5.77,5.77,0,0,1,86.89,264.13Z"/><path class="cls-2" d="M292.41,374.72a5.49,5.49,0,0,1-5.68-5.59,5.69,5.69,0,0,1,11.37-.06A5.63,5.63,0,0,1,292.41,374.72Z"/><path class="cls-2" d="M371.46,281.07a5.53,5.53,0,0,1,5.62,5.68,5.71,5.71,0,0,1-5.74,5.62,5.5,5.5,0,0,1-5.59-5.69A5.58,5.58,0,0,1,371.46,281.07Z"/><path class="cls-2" d="M114.85,308.25a5.63,5.63,0,1,1-11.26-.33,5.44,5.44,0,0,1,5.76-5.5A5.64,5.64,0,0,1,114.85,308.25Z"/><path class="cls-2" d="M380.56,235.22a5.72,5.72,0,0,1,.28,11.43,5.72,5.72,0,0,1-.28-11.43Z"/><path class="cls-2" d="M385.32,217.71a5.64,5.64,0,0,1-5.76,5.55,5.71,5.71,0,0,1-5.44-5.93,5.6,5.6,0,1,1,11.2.38Z"/><path class="cls-2" d="M93.5,286.74a5.53,5.53,0,0,1,5.77-5.53,5.74,5.74,0,1,1-5.77,5.53Z"/><path class="cls-2" d="M372.34,264.36a5.61,5.61,0,1,1,5.74,5.54A5.52,5.52,0,0,1,372.34,264.36Z"/><path class="cls-2" d="M167.57,100.73a5.39,5.39,0,0,1,5.57,5.66,5.62,5.62,0,0,1-5.73,5.6,5.52,5.52,0,0,1-5.59-5.69A5.59,5.59,0,0,1,167.57,100.73Z"/><path class="cls-2" d="M100.92,194.74a5.63,5.63,0,1,1-11.25.09,5.79,5.79,0,0,1,5.91-5.78A5.58,5.58,0,0,1,100.92,194.74Z"/><path class="cls-2" d="M354.92,158a5.64,5.64,0,1,1,0-11.28,5.84,5.84,0,0,1,5.71,6A5.52,5.52,0,0,1,354.92,158Z"/><path class="cls-2" d="M340,128.59a5.81,5.81,0,0,1,5.73,5.68,5.64,5.64,0,0,1-5.64,5.69,5.85,5.85,0,0,1-5.74-5.67A5.68,5.68,0,0,1,340,128.59Z"/><path class="cls-2" d="M246.75,385.91a5.48,5.48,0,0,1-5.38-5.88,5.69,5.69,0,1,1,5.38,5.88Z"/><path class="cls-2" d="M316.9,118.5a5.48,5.48,0,0,1,5.87-5.39,5.66,5.66,0,0,1,5.44,5.89,5.51,5.51,0,0,1-5.89,5.38A5.58,5.58,0,0,1,316.9,118.5Z"/><path class="cls-1" d="M464.74,414.42a5.61,5.61,0,1,1,5.69-5.6A5.58,5.58,0,0,1,464.74,414.42Z"/><path class="cls-1" d="M11.2,409a5.48,5.48,0,0,1-5.78,5.44A5.63,5.63,0,0,1,0,408.8a5.54,5.54,0,0,1,5.69-5.57A5.46,5.46,0,0,1,11.2,409Z"/><path class="cls-1" d="M283.71,43.37A5.63,5.63,0,0,1,278,49a5.61,5.61,0,0,1,0-11.22A5.74,5.74,0,0,1,283.71,43.37ZM278,40.64c-1.61.25-2.6,1.11-2.56,2.78A2.45,2.45,0,0,0,278.07,46a2.49,2.49,0,0,0,2.67-2.88C280.67,41.45,279.53,40.77,278,40.64Z"/><path class="cls-1" d="M34.94,12.47A5.61,5.61,0,1,1,29.13,7,5.55,5.55,0,0,1,34.94,12.47Zm-5.65,2.87A2.54,2.54,0,0,0,32,12.82a2.48,2.48,0,0,0-2.67-2.88,2.44,2.44,0,0,0-2.68,2.6A2.62,2.62,0,0,0,29.29,15.34Z"/><path class="cls-2" d="M347.49,13.59a5.92,5.92,0,0,0-2.78.1c-.62.07-1.4.44-1.8-.22a2,2,0,0,1,0-1.6c.33-.82,1.11-.39,1.72-.34.92.08,1.83.2,3,.33-.37-1.53-1.49-2.31-2.18-3.33-.57-.83-.53-1.27.34-1.76s1.34-.56,1.76.43,1,2.19,1.59,3.49c1.14-1,1.37-2.29,1.9-3.39.4-.81.77-1.2,1.68-.65s.92,1,.4,1.82c-.63,1-1.72,1.72-1.93,3,.82.62,1.63.15,2.42.13s1.71-.73,2.26.26a1.81,1.81,0,0,1-.05,1.59c-.62.83-1.54.22-2.34.19s-1.46-.11-2.18-.17c-.25,1.16.68,1.56,1.08,2.25s1.42,1.16,1,2.11a1.9,1.9,0,0,1-1.32.91c-1.14.08-1.05-1.1-1.43-1.77s-.72-1.49-1.32-2.77c-.69,1.38-1.18,2.39-1.68,3.39-.37.74-.55,1.64-1.78.94s-.62-1.41-.1-2.21S347.28,14.78,347.49,13.59Z"/><path class="cls-1" d="M443.37,22.41A5.6,5.6,0,1,1,437.65,28,5.62,5.62,0,0,1,443.37,22.41ZM446,28c-.16-1.65-1.05-2.67-2.65-2.68a2.5,2.5,0,0,0-2.73,2.8,2.45,2.45,0,0,0,2.6,2.64C445,30.75,445.87,29.69,446,28Z"/><path class="cls-1" d="M462.47,152.26a5.63,5.63,0,0,1-5.56,5.73,5.6,5.6,0,0,1-.31-11.19A5.72,5.72,0,0,1,462.47,152.26Zm-2.89.18c-.2-1.55-.94-2.73-2.57-2.79a2.73,2.73,0,1,0-.09,5.46C458.59,155.11,459.32,154,459.58,152.44Z"/><path class="cls-2" d="M117.08,46.86c.71.9,2.59-.85,2.65.92.06,1.6-1.75.25-2.5,1-.79,1,2.12,2,.33,2.9-1.61.79-1-1.7-2.54-1.94-.93,0-.48,2.75-1.94,2s.82-1.76.44-2.92c-.5-1-2.6.72-2.48-1.06.09-1.46,1.79-.17,2.55-.86.67-1.14-2.16-2.06-.47-3,1.43-.77,1.15,1.51,2.1,2,1.49.08.68-3.11,2.46-2C119.15,44.74,116.77,45.56,117.08,46.86Z"/><path class="cls-2" d="M185,252a5.61,5.61,0,1,1-5.76,5.52A5.52,5.52,0,0,1,185,252Z"/></g></g></svg>